<svg xmlns="http://www.w3.org/2000/svg" viewBox="0 0 400 400" id="Clickbait--Streamline-Free-Illustrations" height="400" width="400">
  <desc>
    Clickbait Streamline Illustration: https://streamlinehq.com
  </desc>
  <g>
    <g>
      <path d="M142 88c-0.16 -1.76 2.18 -0.92 2.14 1.42 0 3.2 -2.74 3.18 -4.46 1.66 -0.72 -0.64 -0.48 -1.52 -0.42 -2.32 0 0 0.4 -0.24 0.6 -0.24s0.3 0.22 0.44 0.36A1.02 1.02 0 0 0 142 88Z" fill="#d8e9ff" stroke-width="1"></path>
      <path d="M154 101.34c0.54 -0.48 0.24 -0.54 1.32 0.28a9.04 9.04 0 0 1 -2.92 2.72c-0.44 0.3 -0.72 0 -0.96 -0.3s-0.4 -0.04 2.56 -2.7Z" fill="#d9d9d9" stroke-width="1"></path>
      <path d="M152 99.02c0.46 -0.4 0.5 -0.18 1.06 0.42a6.58 6.58 0 0 1 -2.66 2.72c-0.6 0.34 -0.72 -0.18 -0.96 -0.46s-0.44 -0.04 2.56 -2.68Z" fill="#d9d9d9" stroke-width="1"></path>
      <path d="M148.32 142.1a2.2 2.2 0 0 1 0.84 0.48 16.38 16.38 0 0 1 -8.72 0.86c-0.92 0 -1.08 0.82 -0.28 1.32 5.78 3.64 0.24 -1.9 8.94 12.38 -4 2.4 -4 2.64 -4.28 2 0 0 -2.84 -5.22 -4.68 -9.04 -3.24 -6.74 -6.72 -17.66 -6.58 -20 1.02 0.74 8.92 9.6 14.76 12Z" fill="#d9d9d9" stroke-width="1"></path>
      <path d="M184.7 145.28a22.74 22.74 0 0 1 -7.1 18c-0.92 0.9 -2.96 3.26 -4 2.48 -1.62 -1.12 -3.06 0 -2.86 -0.86 0.34 -1.64 -1.5 -1.8 -0.3 -2.62 3.76 -2.54 4.28 -2.6 6.36 -6a22.56 22.56 0 0 0 0.28 -21.04c-5.66 -11.84 -24.88 -28.78 -23.6 -29.76 4.78 -3.74 -0.2 -4.88 15.34 11.28 8.86 9.48 14.56 16.56 15.88 28.52Z" fill="#d9d9d9" stroke-width="1"></path>
      <path d="M150.86 96.82c0.44 0.72 0 0.92 -2.28 2.92 -0.52 0.46 -0.76 0.24 -2.54 -1.36 -0.66 -0.6 -4 0.18 -6.64 -0.46a8.54 8.54 0 0 1 -2.58 -16c0.74 -0.38 0.76 -0.38 1.02 0.4 1.1 3.36 1.2 3.5 0.62 4 -3.66 3.52 0.96 9.82 6.12 6.76 2 -1.24 2.9 -8 -1.8 -8.16 -0.98 0 -1.66 -0.34 -1.8 -1.48 -0.18 -1.76 -1.54 -2.86 0 -3.3 4.46 -1.18 10 2.34 10.4 8.6 -1.1 5.38 -1.72 6.06 -0.52 8.08Z" fill="#d9d9d9" stroke-width="1"></path>
      <path d="M230 142c0.9 1.46 22.6 39.9 21.54 39.68 -4.28 -0.94 -4.76 -2 -9.42 -5.54 -1.76 -1.36 -4.34 0.78 -3.74 4.24 1.74 10 15.6 4.86 6.36 17.02 -0.26 0.34 -1.56 0 -2.48 0 -2.46 0.26 -1.82 2.5 -4.94 5.26a9.4 9.4 0 0 0 -1.64 7.18c0.78 2.44 7.56 -2 -46.56 28.38 -17.38 9.76 -15.22 9.58 -27.74 16 -1.46 0.74 -1.16 0 -6.36 -9 -44.24 -76.88 -44.5 -60.86 -29.76 -70.52 9.46 -6.2 17.1 -11.1 51.9 -30.4 1.8 -1 0.36 10 -4.46 14.34 -0.62 0.58 -0.2 0 -1.54 -2 -0.56 -0.88 -1.48 0.44 -1.2 0.88 1.68 2.68 -2.84 3.28 -1.42 6.42 0.42 0.94 -0.4 3.72 2.28 3.34a2.96 2.96 0 0 1 2.52 0.66c2 1.6 12.32 -6.72 13.12 -21.42 0.28 -4.98 -1.7 -6.38 0 -7.22 7.64 -4 27.12 -15.56 29.18 -16.78 3.94 -2.32 2.9 1.14 14.36 19.48Zm-2.74 29.28c2.86 -0.84 1.88 -2.44 1.82 -3.24a2 2 0 0 0 -1.8 -1.88c-2.62 -0.4 -6.74 -3.54 -10.5 -2.5 -1.4 0.4 0.38 -0.36 2 -10 0.44 -2.76 -4.44 -3.36 -5.04 0a41.18 41.18 0 0 1 -2.12 8.62l-0.42 -0.52c-3.28 -5.68 -2.54 -5.26 -5.28 -5.02a1.12 1.12 0 0 0 -1.06 0.96c-0.46 1.62 0 2.66 2 6.28 6.58 11.84 7.06 15.3 10.66 12.8 0.88 -0.6 0.54 -1.48 0.6 -2.2 0.1 -1.22 -0.36 -1.38 -2.48 -5.36 -0.32 -0.6 2.2 -0.98 3.6 -0.4 3.76 1.46 6 3.06 8.02 2.48ZM222.82 206c1.52 -1.04 1.18 -4.52 -1 -4.38s-2.44 0.6 -7.86 4.62c-1.64 1.2 -0.96 1.88 -4.56 -2.6 -0.24 -0.3 -0.32 -0.54 0.18 -0.8 1.14 -0.58 7.02 -4 7.38 -6a3.68 3.68 0 0 0 -0.12 -0.94 1.72 1.72 0 0 0 -2 -1.7c-3.24 0 -8 6.38 -9.2 4.78 -1.68 -2.4 -2.42 -3.08 -2 -3.26a29.12 29.12 0 0 0 6 -3.7c3.72 -2.12 2.6 -1.6 2.58 -3.44a2 2 0 0 0 -2.48 -1.62 11.1 11.1 0 0 0 -5.1 3.04c-3.8 2.3 -5.44 2.74 -5.88 5.36 -0.4 2.28 0.76 2.5 2 4.56a98.48 98.48 0 0 0 7.84 10.48c2.42 3.44 6.6 0.8 14.22 -4.4Zm-26 -21.02C202 188 210 183.66 210 179.6c0 -5.78 -4.68 -3.04 -4.72 -2.64a4.32 4.32 0 0 1 -6 2.86 8 8 0 0 1 -4.42 -9.02c0.42 -1.34 0.78 -0.52 2 -0.8 2.28 -0.48 1.88 -3.22 0.9 -4.26 -6.68 -7 -14.12 11.64 -1 19.2Zm8.4 30.28c0.2 -2.78 -0.7 -2.66 -2.84 -5.52 -8.3 -11.14 -7.02 -9.76 -8.6 -11.28a2.8 2.8 0 0 0 -4 1.26c0 0.48 -0.38 0.94 -0.52 1.42 -2 6.58 -1.68 6.74 -2.3 6.76 -9.66 0.5 -5.12 -0.5 -10.64 0.36 -1.4 0.22 -1.68 2.68 -0.7 4 7.5 11 7.5 15.06 10.62 13.54s-6.22 -13.32 -4.4 -12.94a16.26 16.26 0 0 0 4.62 0c5.68 -0.36 3.3 -0.36 6.32 -7.82 2.54 2.42 5.42 8 8.96 11.14a2.28 2.28 0 0 0 3.42 -0.96Zm-17.8 -23.56a2.62 2.62 0 0 0 4.9 -0.82c-1.6 -5.38 -6.62 -11.04 -11.48 -16.6 -0.86 -0.98 -3.02 -0.98 -3.56 0 -1.28 2.5 -0.06 2.22 10.08 17.38Zm-1.72 4.18c0.9 -1.06 0 -4.98 -2.68 -4.12s-2.6 1.12 -7.14 4.14c-0.92 0.6 -0.38 0.38 -2.64 -3.14a88.12 88.12 0 0 0 -6.66 -9.22c-2 -2 -4.22 -0.88 -4.22 0.46 0 2.26 1.02 2.28 3.22 5.72 9.52 14.92 5.5 16 17.62 8.24a8.62 8.62 0 0 0 2.44 -2.12Zm-17.54 9.52a3.58 3.58 0 0 0 0.64 -3.52c-0.74 -2.76 -2.84 -1.64 -3.24 -1.6 -2.44 0.2 -1.32 2.14 -4.92 4.92a6.86 6.86 0 0 1 -8.82 -4.34c-1.28 -3.36 0.98 -7.7 2 -6.96a2.24 2.24 0 0 0 3.08 -1.24c0.56 -2.92 -2.9 -5.82 -7.06 -2.96s-5.38 12.64 0.22 18.32a11.16 11.16 0 0 0 16 0.2c0.8 -0.9 1.3 -1.98 2.04 -2.86Z" fill="#fff59e" stroke-width="1"></path>
      <path d="M287.88 227.42c-1.38 0.24 -14.66 -1.84 -17.02 -2 -15.14 -0.96 -19.88 0.34 -43.2 4.52 -9.4 1.7 -15.46 2.74 -25.38 7.88 -7.2 3.74 -12 6.26 -15.26 10.5a10.22 10.22 0 0 0 -0.46 12c5.48 8.18 19.18 7.54 19.72 8.92 2.24 5.56 -2 6.24 -6.92 7 -0.8 0.12 -1.66 -3.02 -4.24 -2.2 -3.7 1.2 -4.84 0.34 -6.14 0.96 -3.16 1.52 -5.86 2.6 -5.26 6.66 0.36 2.46 2.38 2.42 2 3.42a6.34 6.34 0 0 0 0.68 5.76c0.26 0.48 1.54 1.22 1.36 1.42 -0.94 1.16 -0.5 2.44 -0.36 3.7 0.32 2.8 2.46 2.66 2.42 3.7 -0.12 2.86 1.56 3.76 4.18 5.14s5.72 0 7.28 0.62c2.58 0.98 14.4 0.8 17.46 -3.16a5.42 5.42 0 0 1 4.72 -2.7c0.8 0 0.44 0.3 1.18 2.94 0.54 1.86 1.44 2.42 7.86 2 11.32 -0.72 9.5 3.84 9.62 -22.5a17.82 17.82 0 0 0 -1.42 -6.84c-0.86 -2.12 -3.34 -1.32 -11.34 -1.48 -2.16 0 -4.76 -0.3 -5.52 1.88 -1 2.9 -0.86 2.94 -1.44 3.06 -2.4 0.52 -5.3 -0.16 -5.52 -2.64a12.24 12.24 0 0 0 -2.18 -7.06c-0.76 -1.14 -1.38 -0.46 13.54 -3.68 5.62 -1.2 8 -2.58 13.66 -0.22 13.26 5.52 16.92 7.82 28 8.92 0.42 0 0.56 0.18 0.54 0.6 -1.52 20.74 -0.42 19.42 -1.56 20 -56 30.9 -68.52 42.78 -75.26 36.14 -5.78 -5.7 -13.72 -20.34 -14.58 -21.88 -47.08 -82 -56.72 -97.7 -76.56 -133.44 -4.48 -7.88 -4.6 -7.14 -3.04 -7.36 2.22 -0.3 3.08 2 7.1 1.8 2 0 3.04 -0.28 10.8 -3.32 2 -0.82 2.38 -2.2 4.66 -2.78 3.86 -1 7.76 -5.14 6 -8.72 -0.58 -1.24 1.68 -1.64 0.4 -5.36a3.58 3.58 0 0 0 -1.54 -2.38c-0.62 -0.32 2.6 -3.16 -1.24 -7.46 -0.66 -0.74 2.24 -3.8 -1.42 -6.7a9.12 9.12 0 0 0 -8 -0.36c-2.86 1.22 -5.62 0.14 -6.24 4 0 0.32 0 0.54 -0.42 0.64 -14.28 4 -4.96 -5.1 -12.96 -11.6a4.8 4.8 0 0 0 -4.48 -0.96c-2.88 0.86 -0.72 3.74 0.4 8.68 0.78 3.46 -0.98 5.1 0.76 9.8 1.36 3.64 -0.76 4.56 -4.38 6 -0.74 0.32 -0.92 0.22 -1.3 -0.46 -14.36 -25.68 -11.82 -20.12 -12.74 -22.22 -1.82 -4.16 -10.38 -12.86 3.62 -23.18 6 -4.4 53.9 -28.66 56 -29.68 0.9 -0.46 0.68 -0.98 2.44 4.98 0.46 1.6 -5.02 2.36 -6.26 8.66 -1.4 7.14 4.72 13.66 13.06 12.36 1.86 -0.3 0 1.56 2.94 2 2.36 0.42 0.78 2 2.24 2.22 1.8 0.16 0.66 2.34 2.16 2.32 0.34 0 0 0 14 15.4 7.54 8.24 7.72 8 12 17.52a5.74 5.74 0 0 1 0.42 1.84c0 0.2 -26.3 15.78 -27 14.54s-2 -2.96 -2.76 -4.5 -1.84 -3.6 -2.8 -5.38c-0.52 -1 0.68 0 4.48 -1.5 1.6 -0.62 3 -1.52 1.72 -2.68 -1.86 -1.68 -3.5 -0.94 -9.14 -6.12 -6 -5.48 -9.68 -9.6 -9.84 -6.66 -0.64 10.48 11.36 31.26 11.38 31.26 0.58 1.14 -28.38 16.48 -30.4 19.42 -0.7 1.02 7.62 14 16 27.28 8 12.5 14 24 29.52 49.4 2.12 3.46 -0.44 1.82 73.02 -39.18 6.88 -3.84 6.36 -4 7.5 -3.88 0.62 0 1.38 -0.26 1.88 0s0.5 1.1 0.9 1.54c3.64 4 5.7 1.62 5.88 2.56 0.26 1.52 1.56 2.12 2.62 2.94a4 4 0 0 0 3.32 0.52c1.22 -0.2 1.7 2.38 5.12 1.48s3.44 -0.7 6.18 -4c2 -2.34 2.42 -1.04 5.18 -4.36a48.5 48.5 0 0 0 5.44 -6.74c0.34 -0.54 0.48 -0.58 1.66 1.88 2.68 5.42 10.54 18.52 10.56 18.56Zm-183.76 -124.2c3.06 4 2.72 0.38 2.52 -7.62 0 -1.22 -1.16 -1.32 -2 0 -1.58 2.5 -2.14 3.6 -4 6.34 -0.3 0.44 -0.22 1.28 0.9 1.1 0.82 -0.08 1.86 -0.78 2.58 0.18Zm-7.22 4.5c1.22 0.18 1.52 -0.9 1.48 -1.8s-2.14 -4.88 -4.38 -3.74c-0.56 0.28 -0.74 1.42 -0.62 1.88a4.56 4.56 0 0 0 3.52 3.66Zm-4.36 2.5c1.22 0.16 1.52 -0.92 1.48 -1.8s-2.14 -4.88 -4.42 -3.76c-0.58 0.28 -0.72 1.42 -0.62 2a4.6 4.6 0 0 0 3.56 3.56ZM89.4 112a1.223 1.223 0 0 0 -2.42 -0.36c-0.3 1.82 2.26 2.64 2.42 0.36Zm-1.4 -3.8c0 -1.32 -2.66 -2 -2.7 -0.1 -0.1 1.52 2.56 2.1 2.7 0.1Zm-4.44 6.92c-0.12 0.72 2 2 2 -1.62 0 -2.28 -1.8 -1.12 -2 -2.18a4.62 4.62 0 0 0 -0.44 -1.44 2 2 0 0 0 -2.84 -0.52 3 3 0 0 0 -0.46 2.64c0.12 0.14 0.46 0.44 0.64 0.16s0.5 -1.18 0.82 -1.06a1.08 1.08 0 0 1 0.64 1.26c0 0.52 -0.4 0.74 -0.12 1.08s1.08 -0.44 1.52 0.12 0.3 0.84 0.18 1.56Zm-4.42 2.76c1.22 0.18 1.52 -0.9 1.48 -1.8s-2.14 -4.86 -4.42 -3.74c-0.58 0.28 -0.74 1.42 -0.62 1.9a4.58 4.58 0 0 0 3.5 3.64Z" fill="#d8e9ff" stroke-width="1"></path>
      <path d="M269.34 298c0 3.32 0.7 3.52 -0.36 4.1 -1.6 0.84 -42.56 24.38 -51.5 29.26 -31.18 17.04 -22.4 18.9 -55.74 -37.28 -2.82 -4.72 -38.72 -70 -47.76 -84.2 -20.62 -32.62 -32.7 -57.88 -40.2 -69.54 -0.14 0 -6 -9.4 -6 -11.52a0.58 0.58 0 0 0 0 -0.26c-1.84 -2.96 0.56 -9.44 1.08 -8.24 3.1 7.1 3.02 6.72 16.32 29.28 1.5 2.54 11.4 20.84 18 32.28 10.12 17.58 11.86 17.38 37.64 63.8C142.84 249.56 154 268 165.2 288c6.6 11.7 12.9 24.84 18.4 33.44 2.2 3.42 4 5.8 5.68 8 5.14 6.86 8.48 6 11.7 5.06 6 -1.82 20 -9.88 67.76 -36.94 0.44 -0.24 0.58 -0.18 0.6 0.44Z" fill="#d9d9d9" stroke-width="1"></path>
      <path d="M217.4 105.1s46 76.58 45.34 77.56c-1.54 2.44 -4.56 4 -6 2 -4.36 -6 -0.84 -2.62 -23 -40.74 -15.86 -27.28 -14.6 -25.1 -16.44 -24.28s-31.52 17.38 -31.56 17.4c-1.48 0.88 0 -2 -9.04 -13.72 -3.54 -4.6 -10.3 -11.38 -16 -17.7 -1.82 -2 -3 -3.78 -4.52 -5.34s-0.62 -1.72 -1.54 -2c-1.26 -0.4 -1.02 -0.92 -1.14 -2s-1.36 -0.2 -1.54 -0.76 -0.48 -0.76 -0.28 -1.34a21.88 21.88 0 0 0 1.1 -4.18 10.3 10.3 0 0 0 -7.4 -11.38c-4.54 -1.12 -5.38 1.06 -6 -1.1 -0.28 -0.84 -1.08 -3.6 -1.08 -3.7 0 -1.84 -4 0 12.38 -8.38 37.12 -19.04 32.94 -19.28 55.54 19.26 0.28 0.48 0.28 0.74 -0.26 1.12 -7.08 4.92 -5.38 -1.24 -11.14 -4 -3.28 -1.5 -4.52 -3.7 -7.34 -7.32s-8.12 4.32 -1.78 10.34c2.28 2.18 3.6 2.6 3.84 4.96s-2.96 4.56 -4.66 6c-0.32 0.24 -1.32 -0.36 -2.12 -0.52 -2.64 -0.52 -2.38 1.68 -6.42 4a14.24 14.24 0 0 0 -2.94 4.22 4.76 4.76 0 0 0 3.7 6.5c1.38 0.14 -0.54 2.24 4.12 5.08 0.52 0.32 2 0.2 2 0.66a5.58 5.58 0 0 0 5.08 4.8c0.88 0 0.96 2.68 4.72 2.66a8.18 8.18 0 0 0 6.58 -2.26c2.4 -1.86 2.88 -0.72 5.04 -2.26 8.34 -6 9.14 -5.42 10.74 -12.78a2.86 2.86 0 0 1 0.24 -0.62c0.64 -1.42 1.02 -1.46 1.78 -0.18Zm-33.22 -42.82c1.7 -0.9 0.48 -1.68 -1.24 -4.1 -0.6 -0.86 0 -0.98 -5.66 2 -2.38 1.24 -3.3 1.54 -2.9 2.34a7.24 7.24 0 0 0 3 3.18c1.32 -0.58 6.76 -3.4 6.8 -3.42ZM170.98 70c1.88 0 2 -1.26 0.9 -2.74 -2.52 -3.62 -2.54 -4 -3.8 -3.86s-1.02 2.28 -0.34 3.26c2.26 3.14 2.6 3.34 3.24 3.34ZM168 71.7c1.2 -0.76 -1.5 -5.28 -3.22 -4.4s0.36 3.36 1.68 4.5a1.36 1.36 0 0 0 1.54 -0.1Zm-0.44 0.48c-0.16 -0.12 0 -0.12 -0.26 0 0.06 0.12 0 0.1 0.16 0Zm-5.22 0.24c0 1.76 2.66 2.44 2.64 0.42s-2.8 -2.26 -2.74 -0.42Z" fill="#d8e9ff" stroke-width="1"></path>
      <path d="M140.84 261.3c0.8 1.04 16.7 30.66 16.66 30.62 -19.1 -9.68 -27.24 -7.82 -38.16 -23.04 -4 -5.7 0.52 -13.64 9.32 -12.48 13.34 1.76 9.5 1.38 12.18 4.9Z" fill="#ffc6a6" stroke-width="1"></path>
      <path d="M112.2 212c21.82 35.62 17.34 29.52 14.12 27.48 -14.84 -9.42 -12.5 -4.68 -28.52 -18.18 -4.56 -3.86 -8 -7.82 -8.12 -14.3 0 -2.44 1.22 -3.72 3.04 -5.38 0.94 -0.84 4.78 -0.76 6 -0.72a39.36 39.36 0 0 1 7.08 1.84c1.54 0.4 1.28 0.92 6.4 9.26Z" fill="#ffc6a6" stroke-width="1"></path>
      <path d="M186.82 256.6c-0.94 -5.76 -0.36 -9.1 10 -14 13.88 -6.6 20.14 -10.52 24 -10.7s21.9 -4.2 24.34 -4.2 26.46 -1.06 31.2 -0.34 13.66 1.4 13.66 1.4l-38.36 -67.8s20.14 14.36 23.82 18 15.06 13.66 17.86 16.64 15.78 15.6 20.5 29.08c3.86 6.84 12.26 17.18 15.24 22.96a91.22 91.22 0 0 1 6.48 22.94s5.78 29.6 7.54 36 6.48 32.24 7.18 39.58 2 15.78 4.2 21.04 11.04 19.44 11.04 19.44c-11.42 0.46 -99.76 1.42 -102.3 1.22 0 0 -5.62 -13.84 -7.02 -15.58s-13.48 -3.68 -16.12 -5.08 -14.7 -14.2 -16.46 -16.12 -13.84 -14 -13.84 -14l61.14 -34.68s0 -25.76 -0.18 -29.62a151.7 151.7 0 0 1 -15.06 -4c-4.56 -1.76 -18.22 -7.18 -21.2 -6.66s-19.1 3.86 -23.12 4.2 -22.8 1.14 -24.54 -9.72Z" fill="#ffc6a6" stroke-width="1"></path>
      <path d="M225.04 276.28s-1.16 -2.74 3.76 -1.88c0 0 5.9 0.12 7.48 0.12s4.46 0.7 4.64 2.76c0.32 3.4 0 11.02 0 23.24 0 1.08 0.12 2.64 -3.32 2.76s-10 0.26 -10 0.26 -2.2 1.38 -1.56 -3.08c0.96 -6.78 -0.4 -18.46 -1 -24.18Z" fill="#bed4fc" stroke-width="1"></path>
      <path d="M363.52 78.4c-9.46 5.4 -7.62 12.86 -20.7 10 -5.86 -1.26 -7.22 -1.46 -10 0.34a32.6 32.6 0 0 0 -5.68 4.52c-3.52 4.18 -3.5 5.2 -5.16 5.72s-4.22 -0.6 -6.24 -0.82c-28.12 -3.18 -20 17.64 -32.98 16.52a29 29 0 0 0 -6 -0.62c-5.7 1.2 -8.92 3.68 -10.18 9.54 -0.18 0.84 0.24 1.14 1.06 1.1 2 0 0.9 -5.18 7.14 -7.28a9 9 0 0 1 6.24 0 11.36 11.36 0 0 0 13 -6.74c7.7 -15.6 23.44 -7.58 28 -8.48a5.38 5.38 0 0 0 4.1 -2.68 27.06 27.06 0 0 1 7.52 -7.52c2.62 -1.72 3.46 -1.62 6.84 -0.9 14.76 3.18 13.04 -0.62 23.68 -9.34 0.68 -0.56 2.38 0.5 2.56 -1.64 0.14 -1.8 -1.92 -2.44 -3.2 -1.72Z" fill="#000001" stroke-width="1"></path>
      <path d="M165.5 200.24c-2.44 0.22 -1.32 2.14 -4.92 4.92a6.86 6.86 0 0 1 -8.82 -4.34c-1.28 -3.36 0.98 -7.7 2 -6.96a2.24 2.24 0 0 0 3.08 -1.24c0.56 -2.92 -2.9 -5.82 -7.06 -2.96s-5.38 12.64 0.22 18.32a11.16 11.16 0 0 0 16 0.2c0.76 -0.86 1.26 -2 2 -2.82a3.58 3.58 0 0 0 0.64 -3.52c-0.64 -2.76 -2.64 -1.64 -3.14 -1.6Z" fill="#000001" stroke-width="1"></path>
      <path d="M185.64 195.84c0.9 -1.06 0 -4.98 -2.68 -4.12s-2.6 1.12 -7.14 4.14c-0.92 0.6 -0.38 0.38 -2.64 -3.14a88.12 88.12 0 0 0 -6.66 -9.22c-2 -2 -4.22 -0.86 -4.22 0.46 0 2.26 1.02 2.28 3.22 5.72 9.52 14.92 5.5 16 17.62 8.24a8.62 8.62 0 0 0 2.5 -2.08Z" fill="#000001" stroke-width="1"></path>
      <path d="M365.46 171.36c-2 -0.84 -4.9 -0.68 -8 -1.6 -5.74 -1.64 -8.34 -5.08 -14 -4.5a56.3 56.3 0 0 1 -9.3 1.1c-4.4 -0.34 -4.76 -0.56 -11.4 -6 -14.6 -12 -13.76 -0.74 -33.08 1.4 -5.66 0.62 -6.86 -1.14 -10.64 -3.8 -1.46 -1.02 -2.36 0.8 -1.3 1.78 3.38 3.14 6.4 5.2 11.48 4.68a72 72 0 0 0 9.72 -1.36c10 -2.62 10 -10 21.9 -0.38 7.8 6.2 9.14 8.2 21.66 5.86 7.5 -1.4 5.68 3.66 22 5.6l0.3 0c1.58 -0.14 2.4 -2.14 0.66 -2.78Z" fill="#000001" stroke-width="1"></path>
      <path d="M193.72 198.42a2.8 2.8 0 0 0 -4 1.26c0 0.48 -0.38 0.94 -0.52 1.42 -2 6.58 -1.68 6.74 -2.3 6.76 -9.66 0.5 -5.12 -0.5 -10.64 0.36 -1.4 0.22 -1.68 2.68 -0.7 4 7.5 11 7.5 15.06 10.62 13.54s-6.22 -13.32 -4.4 -12.94a16.26 16.26 0 0 0 4.62 0c5.68 -0.36 3.3 -0.36 6.32 -7.82 2.54 2.42 5.42 8 8.96 11.14a2.28 2.28 0 0 0 3.5 -0.98c0.2 -2.78 -0.7 -2.66 -2.84 -5.52 -8.34 -11.08 -7.04 -9.64 -8.62 -11.22Z" fill="#000001" stroke-width="1"></path>
      <path d="M221.82 201.58c-2.2 0.16 -2.44 0.6 -7.86 4.62 -1.64 1.2 -0.96 1.88 -4.56 -2.6 -0.24 -0.3 -0.32 -0.54 0.18 -0.8 1.14 -0.58 7.02 -4 7.38 -6a3.68 3.68 0 0 0 -0.12 -0.94 1.72 1.72 0 0 0 -2 -1.7c-3.24 0 -8 6.38 -9.2 4.78 -1.68 -2.4 -2.42 -3.08 -2 -3.26a29.12 29.12 0 0 0 6 -3.7c3.72 -2.12 2.6 -1.6 2.58 -3.44a2 2 0 0 0 -2.48 -1.62 11.1 11.1 0 0 0 -5.1 3.08c-3.8 2.3 -5.44 2.74 -5.88 5.36 -0.4 2.28 0.76 2.5 2 4.56a98.48 98.48 0 0 0 7.84 10.48c2.4 3.52 6.58 0.88 14.2 -4.36 1.54 -1.12 1.2 -4.6 -0.98 -4.46Z" fill="#000001" stroke-width="1"></path>
      <path d="M196.76 184.94C202 188 210 183.66 210 179.6c0 -5.78 -4.68 -3.04 -4.72 -2.64a4.32 4.32 0 0 1 -6 2.86 8 8 0 0 1 -4.42 -9.02c0.42 -1.34 0.78 -0.52 2 -0.8 2.28 -0.48 1.88 -3.22 0.9 -4.26 -6.68 -7 -14.12 11.64 -1 19.2Z" fill="#000001" stroke-width="1"></path>
      <path d="M217.54 176.66c0.88 -0.6 0.54 -1.48 0.6 -2.2 0.1 -1.22 -0.36 -1.38 -2.48 -5.36 -0.32 -0.6 2.2 -0.98 3.6 -0.4 3.74 1.58 6 3.18 8 2.6 2.86 -0.84 1.88 -2.44 1.82 -3.24a2 2 0 0 0 -1.8 -1.88c-2.62 -0.4 -6.74 -3.54 -10.5 -2.5 -1.4 0.4 0.38 -0.36 2 -10 0.44 -2.76 -4.44 -3.36 -5.04 0a41.18 41.18 0 0 1 -2.12 8.62l-0.42 -0.52c-3.28 -5.68 -2.54 -5.26 -5.28 -5.02a1.14 1.14 0 0 0 -1.06 0.96c-0.46 1.62 0 2.66 2 6.28 6.6 11.7 7.14 15.16 10.68 12.66Z" fill="#000001" stroke-width="1"></path>
      <path d="M130.96 300c-7.46 11.48 -3.44 7.56 -8.54 26.74 -5.68 21.38 -11.28 21.56 -10.64 24.92 0.34 1.68 2 1.8 2.34 -0.14a18.48 18.48 0 0 1 2.4 -4.12c8.28 -11.52 11.34 -36 11.72 -37.56a38.62 38.62 0 0 1 4.66 -9.12c0.56 -1.06 -0.9 -2.16 -1.94 -0.72Z" fill="#000001" stroke-width="1"></path>
      <path d="M59.04 175.52c17.8 -2.36 13.82 0 17.46 1.84 0.94 0.46 1.8 -0.56 1.02 -1.68 -5.02 -7.1 -18 -1.06 -25.72 -2.56 -8.48 -1.64 -8.36 -5.24 -16.8 -6a1.58 1.58 0 0 0 -1.72 1.22c-0.14 1 2.84 1.54 4.22 1.78 5.86 1.16 8.78 7.08 21.54 5.4Z" fill="#000001" stroke-width="1"></path>
      <path d="M211.84 50.22c-0.98 3.3 -3.28 7.6 -3.14 9.1s2 1.86 2.28 0.12 6 -11.06 2.92 -14.62c-2.52 -2.94 -3.8 -3.54 -3.76 -5.4 0.12 -5.16 0.34 -4.48 4.56 -15.84 1.08 -2.88 -1.7 -3.12 -2.58 -1.04 -11.46 27.3 2.34 18.88 -0.28 27.68Z" fill="#000001" stroke-width="1"></path>
      <path d="M231.62 295.76c-2 -0.32 -2.76 3.7 -0.14 3.76a1.881 1.881 0 1 0 0.14 -3.76Z" fill="#000001" stroke-width="1"></path>
      <path d="M239.76 95.34a8.22 8.22 0 0 1 -0.42 -4.7c0.38 -3.24 2.34 -4.14 5.66 -6.18 0.64 -0.4 15.7 -5.32 14.24 -12.62 -1.88 -9.48 -7.44 -16.54 10.88 -21.24 3.08 -0.78 6.9 -2.62 7.44 -4.62 0.96 -3.58 3.24 -10.5 6.8 -12.34 2.14 -1.1 -1.36 -6.22 -6.28 2.66 -5.28 9.5 0.38 8.22 -10.82 11.88 -4.78 1.56 -6.68 2.16 -8.62 4 -4.86 4.58 -6.42 5.54 -2.22 20.24 0.3 1.04 -0.58 2.14 -1.4 2.96 -6.82 6.88 -20.52 6 -18 19.14 0.8 4.16 3.36 2.1 2.74 0.82Z" fill="#000001" stroke-width="1"></path>
      <path d="m188.44 52.36 0 0.12c0 0.12 0.06 -0.04 0 -0.12Z" fill="#000001" stroke-width="1"></path>
      <path d="M303.1 363c-3.24 -2.62 -3.8 -0.36 -2.64 0.86a27.12 27.12 0 0 0 5.74 4c6 2.54 7.76 3.5 7.74 1.36 0.54 -1.94 -5.74 -2.06 -10.84 -6.22Z" fill="#000001" stroke-width="1"></path>
      <path d="M89.6 104.66c-0.58 0.28 -0.72 1.42 -0.62 2a4.6 4.6 0 0 0 3.56 3.66c1.22 0.16 1.52 -0.92 1.48 -1.8s-2.14 -4.98 -4.42 -3.86Zm2.18 3.72a2.66 2.66 0 0 1 -1.22 -1.54c0 -0.18 -0.18 -0.52 0 -0.64 0.58 -0.26 1.68 1.22 1.7 1.64s-0.04 0.76 -0.48 0.54Z" fill="#000001" stroke-width="1"></path>
      <path d="M198.32 115.08c-1.14 -1.56 -2.4 -1.1 -3.12 -2.88 -0.54 -1.28 -0.86 -3.04 -2.3 -3.76 -2.48 -1.28 -1.72 -3.5 -3.6 -5.6a28.2 28.2 0 0 1 -2.54 -3.04 0.64 0.64 0 0 0 -0.68 -0.36 0.66 0.66 0 0 0 -0.56 0.56c-0.42 2.46 2.8 3.12 3.52 5.66 1.76 6.24 2.66 1.44 4.8 7.66 0.68 2 2.32 1.78 3.56 3.38 0.44 0.58 2 1.46 2.54 0.48s-1.14 -1.44 -1.62 -2.1Z" fill="#000001" stroke-width="1"></path>
      <path d="M177.22 174.3c-1.24 2.48 0 2.22 10.14 17.36a2.62 2.62 0 0 0 4.9 -0.82c-1.6 -5.38 -6.62 -11.04 -11.48 -16.6 -0.78 -0.98 -3.02 -0.98 -3.56 0.06Z" fill="#000001" stroke-width="1"></path>
      <path d="M98.9 241.06c-2 -0.74 -13.52 1.8 -19.24 4.44a13.48 13.48 0 0 0 -6.78 7.4c-4.46 7.32 -12.88 2.64 -23.24 7.56a2.58 2.58 0 0 0 -1.38 2.84c0.14 0.7 1.9 1.34 2.16 -0.16 0.12 -0.58 0.18 -0.88 4.1 -1.74 12.16 -2.72 16.52 -0.14 20.72 -8.26a9.84 9.84 0 0 1 6 -6c4.44 -1.82 13.68 -4.3 17.24 -4 1.72 0.1 1.98 -1.54 0.42 -2.08Z" fill="#000001" stroke-width="1"></path>
      <path d="M94 102.18c-0.56 0.28 -0.74 1.42 -0.62 1.88a4.56 4.56 0 0 0 3.56 3.66c1.22 0.18 1.52 -0.9 1.48 -1.8s-2.18 -4.88 -4.42 -3.74Zm2.18 3.7a2.56 2.56 0 0 1 -1.22 -1.54c0 -0.18 -0.2 -0.52 0 -0.62 0.58 -0.28 1.68 1.22 1.7 1.64s-0.1 0.76 -0.52 0.52Z" fill="#000001" stroke-width="1"></path>
      <path d="M177.38 65.68c1.32 -0.56 6.76 -3.38 6.8 -3.4 1.7 -0.9 0.48 -1.68 -1.24 -4.1 -0.6 -0.86 0 -0.98 -5.66 2 -2.36 1.24 -3.3 1.54 -2.9 2.34a7.24 7.24 0 0 0 3 3.16Z" fill="#000001" stroke-width="1"></path>
      <path d="M76.14 112.34c-0.58 0.28 -0.74 1.42 -0.62 1.9a4.58 4.58 0 0 0 3.56 3.64c1.22 0.18 1.52 -0.9 1.48 -1.8s-2.16 -4.88 -4.42 -3.74Zm0.96 2.18c0 -0.2 -0.2 -0.54 0 -0.64 0.58 -0.28 1.66 1.22 1.68 1.64 0.12 1.32 -1.34 0.14 -1.68 -1Z" fill="#000001" stroke-width="1"></path>
      <path d="M199.76 295.18c1.18 -4.4 -1.36 -4.4 -0.64 -6.78 1.44 -4.64 -0.94 -5.28 -0.14 -8 0.12 -0.38 -0.2 -1.3 -0.78 -0.82l0.18 0c0 0.16 -2 0.6 -0.7 4.78 0.98 3.32 -1.8 4.28 0.42 7.78a4.56 4.56 0 0 1 0 2.92c-0.62 2.48 0.42 3.18 1.08 5.08 0.34 0.94 0.78 2.96 2 2.26s-0.26 -2 -0.3 -2.62c-0.16 -2.12 -1.76 -2.26 -1.12 -4.6Z" fill="#000001" stroke-width="1"></path>
      <path d="M162.24 72.42c0 1.76 2.66 2.44 2.64 0.42s-2.7 -2.26 -2.64 -0.42Z" fill="#000001" stroke-width="1"></path>
      <path d="M252.84 205.48c-1.48 -3 -4 -2.46 -5.42 -4.92 -0.26 -0.42 -0.62 -0.3 -0.98 0s-0.18 0.64 0 0.98c0.98 2.72 3.76 2.28 5 4.84 2.14 4.34 3.5 1.58 5.56 4.84 1.32 2 1.08 1.86 6.74 4.22 0.3 -0.28 0.74 -0.5 0.84 -0.82a0.84 0.84 0 0 0 -0.6 -1.04c-2.14 -0.76 -1.74 -1.14 -3.5 -1.54 -1.12 -0.24 -1.62 -1.02 -2.24 -2 -2.24 -3.58 -3.76 -1.2 -5.4 -4.56Z" fill="#000001" stroke-width="1"></path>
      <path d="M86.98 111.74c-0.16 1.74 2.26 2.48 2.42 0.18a1.22 1.22 0 0 0 -1.02 -1.38 1.2 1.2 0 0 0 -1.4 1.2Z" fill="#000001" stroke-width="1"></path>
      <path d="M83.42 111.32a4.62 4.62 0 0 0 -0.44 -1.44 2 2 0 0 0 -2.84 -0.52 3 3 0 0 0 -0.32 2.64c0.12 0.14 0.46 0.44 0.64 0.16s0.5 -1.18 0.82 -1.06a1.08 1.08 0 0 1 0.64 1.26c0 0.52 -0.4 0.74 -0.12 1.08s1.08 -0.44 1.52 0.12 0.3 0.82 0.18 1.54 2 2 2 -1.62c-0.1 -2.26 -1.86 -1.1 -2.08 -2.16Z" fill="#000001" stroke-width="1"></path>
      <path d="M352.88 358.38c0.14 -0.08 0.14 -0.06 0 0Z" fill="#000001" stroke-width="1"></path>
      <path d="M88 108.2c0 -1.32 -2.66 -2 -2.7 -0.1 -0.1 1.52 2.56 2.1 2.7 0.1Z" fill="#000001" stroke-width="1"></path>
      <path d="M360.94 376.56c-11.4 -20.16 -6 -10.62 -11.16 -44.76 -2.26 -15.08 -10.6 -47.16 -13.42 -63 -2.16 -12.18 -3.86 -19.1 -8.16 -25.46 -20 -29.56 -12.82 -19.04 -19.66 -31.88a68.74 68.74 0 0 0 -17.64 -19.88c-14.66 -12 -8 -9.46 -26 -23.84 -3.2 -2.56 -11.82 -7.04 -12.76 -8.5 -1.36 -2.12 -8.84 -16.82 -18.12 -31.46 -42.66 -67.4 -38 -86.2 -66 -73.6 -25.12 11.32 -30.68 16.68 -31.32 14.78 -1.1 -3.1 -2.7 -7.6 -4.22 -12.96 -7.16 -24.8 -5.9 -17.22 -8.32 -25.7 -4.7 -16.56 0.96 -2.22 -5.82 -19.84 -0.32 -0.56 -2.94 -0.74 -2.36 1.4A76.14 76.14 0 0 1 120.4 26c2.64 11.86 1.24 3.2 8.4 26.56 2.54 8.28 2.86 10.36 5.38 17.58 0.86 2.4 -44.96 21.62 -60.78 34.3 -4.1 3.28 -10.28 17.7 -8.46 24.16 1.74 6.14 39.48 70.74 39.64 71.12 -1.24 0 -10.12 -4 -14.96 1.08 -2.42 2.54 -3.74 5.5 -1.82 11.24s5.62 8.88 9.12 12c14.54 12.56 19.46 11.82 25.42 16a49.86 49.86 0 0 0 8.88 4.96c1.2 0.32 2.32 4 5.52 9.04a7.36 7.36 0 0 1 0.42 0.9l-8.22 -1.1c-5.4 -0.74 -11.66 1.58 -13.24 6.72a11.44 11.44 0 0 0 1.68 10.6 43.48 43.48 0 0 0 6.6 7.38c16.12 11.62 33.46 12.92 37.18 19.5 10 17.6 14.16 24.58 16.32 28.56a79.38 79.38 0 0 0 10.28 14.94 11.14 11.14 0 0 0 12 1.88c10.84 -4.36 8 -6.26 10.8 -3.84 9.48 8 15.32 18.74 23.78 25.34 10 7.84 19.22 7.08 20.72 8.52 2.22 2 2.16 2.86 7.02 15.14 0.62 1.6 0.8 1.68 2.32 0.86 0.76 -0.42 1.6 0.36 -4 -12.44 -2 -4.72 -2.5 -3.28 2.52 -2.8 1.1 0 2.44 -0.56 2 -1.6s-0.86 -1.24 -6.4 -2c-25.4 -4 -22.98 -9.62 -40 -27.28a80.98 80.98 0 0 0 -5.82 -5.64c-0.66 -0.58 -0.48 -0.62 0.34 -1.08 61.42 -34.8 56.96 -32.4 56.96 -31.44 0.48 24.52 5.82 31 21.68 47.02 4.24 4.3 16.98 9.68 18.24 9.58 0.74 0 1.24 -0.36 1.36 -0.96 0.32 -1.74 -0.32 -1.44 -4.78 -3.42 -6.66 -2.96 -12.36 -5 -22.18 -16.94 -7.62 -9.26 -7.52 -11.5 -10 -18.96 -1.82 -5.66 -1.24 -10.8 -1.7 -17.08 -1.88 -25.56 2 -32.26 -1.78 -33.18 -7.72 -2 -2.52 2 -30.86 -9.86 -5.5 -2.3 -14.7 2.5 -28.36 4.2 -6.24 0.78 -19.02 -1.28 -22.44 -6.4 -4.3 -6.38 2.38 -13.18 2 -10.38 -1.34 10.32 23.12 11.58 21.2 -8.2 -0.14 -1.42 -2.26 -1.68 -2.12 0.16 0.7 9.86 -5.22 14.16 -13.68 12.44 -4.76 -0.96 -3.52 -6.96 -2.64 -7.48 19.42 -11.74 22.68 -10.7 37.86 -13.66 8.6 -1.66 8 -2.12 7 0a13.8 13.8 0 0 0 -0.24 11.62c0.34 0.7 1.64 0.76 1.74 -0.22 0.18 -1.66 -2.38 -4.92 0.66 -11.56 1.08 -2.4 0.66 -1.86 2.98 -2.36 1.12 -0.22 0.74 -0.32 0.82 4 0 1.64 1.72 2.16 1.72 -0.28 0 -3.42 -0.32 -4.22 0.88 -4.36 16.6 -2 25.28 -0.52 44.2 1.68 8.6 1 10.76 2.22 18.1 5a1.208 1.208 0 1 0 1.04 -2.18 72.98 72.98 0 0 0 -12.9 -4.64c-11.64 -2.4 -2.92 3.12 -16 -16.8 -1.04 -1.56 -26.32 -47.26 -26.36 -47.26s5.16 3.26 8 5.5c10.3 8 12.48 11.56 16.88 16 8.14 8.14 16.74 13.5 21.86 21 10.42 15.24 4.48 10 16.12 26.66 16.8 24.14 10.3 17.86 19.26 53.74 16.34 65.4 8.7 66.92 16.14 81.64A159.28 159.28 0 0 0 364.24 387c0.64 0.9 2.52 0.28 2.18 -0.9 -0.94 -2.96 0.5 1.04 -5.48 -9.54ZM210 92c2.26 4.16 5 8.82 5.38 9.52 0.86 1.54 -1.62 0.86 -2.26 4.82a8.26 8.26 0 0 1 -3.42 6.2c-6.64 4.86 -6.7 4.94 -8.3 5.3 -3.68 0.8 -4.2 3.72 -8.2 3.62 -2.78 -0.88 -2 -0.58 -2.58 -1.18 1.74 -1.06 4.16 -1.44 3.36 -2.7 -0.54 -0.88 -1.48 0 -3.3 0.7 -2.52 0.92 -4.6 0.34 -5.5 -2.14 -0.54 -1.46 2 -2.1 3.3 -3.08 0.54 -0.4 0.86 -0.86 0.62 -1.48s-0.78 -0.32 -1.62 0c-2 0.9 -5.3 3.08 -7 0.26s-1.3 -1.48 5.04 -6c0.68 -0.48 0.44 -2.18 -2.8 -0.28a15.6 15.6 0 0 1 -4.34 2.22 2.78 2.78 0 0 1 -3.28 -4c1.46 -2.26 1.5 -2.66 2 -3 4 -2.34 4 -4 5.32 -3.76a11.56 11.56 0 0 1 -3.44 3.78 0.78 0.78 0 0 0 -0.46 1c0.42 1.28 2.8 -0.2 3.78 -1.58 2 -2.92 5.52 -3.46 8 -7.46 2.64 -4.36 -1.18 -6.86 -3.74 -9.34 -2 -1.88 -2.92 -5.52 -1.18 -7.62 0.36 -0.46 0.58 -0.54 3.46 3.48s6 4.26 7.36 5.74a17.56 17.56 0 0 1 2 2.72c2 2.9 6.42 1.52 8.22 -0.32 1.2 -1.06 1.02 -0.14 3.58 4.58Zm-72.16 -9.6c1.1 3.36 1.2 3.5 0.62 4 -3.66 3.52 0.96 9.82 6.12 6.76 2 -1.24 2.9 -8 -1.8 -8.16 -0.98 0 -1.66 -0.34 -1.8 -1.48 -0.18 -1.76 -1.54 -2.86 0 -3.3 4.46 -1.18 10 2.34 10.4 8.6 -1.16 5.24 -1.78 6 -0.58 8 0.44 0.72 0 0.92 -2.28 2.92 -0.52 0.46 -0.76 0.24 -2.54 -1.36 -0.66 -0.6 -4 0.18 -6.64 -0.46a8.54 8.54 0 0 1 -2.58 -16c0.8 -0.3 0.82 -0.3 1.08 0.48ZM142 88c-0.16 -1.76 2.18 -0.92 2.14 1.42 0 3.2 -2.74 3.18 -4.46 1.66 -0.72 -0.64 -0.48 -1.52 -0.42 -2.32 0 0 0.4 -0.24 0.6 -0.24s0.3 0.22 0.44 0.36A1.02 1.02 0 0 0 142 88Zm44.36 51.34c7.64 -4 27.12 -15.56 29.18 -16.78 4 -2.36 3 1.12 14.46 19.46 0.9 1.46 22.6 39.9 21.54 39.68 -4.28 -0.94 -4.76 -2 -9.42 -5.54 -1.76 -1.36 -4.34 0.78 -3.74 4.24 1.74 10 15.62 4.86 6.36 17.02 -0.26 0.34 -1.56 0 -2.48 0 -2.46 0.26 -1.82 2.5 -4.94 5.26a9.4 9.4 0 0 0 -1.64 7.18c0.78 2.44 7.56 -2 -46.56 28.38 -17.38 9.76 -15.22 9.58 -27.74 16 -1.46 0.74 -1.16 0 -6.36 -9 -44.24 -76.9 -44.5 -60.88 -29.76 -70.54 9.46 -6.2 17.1 -11.1 51.9 -30.4 1.8 -1 0.36 10 -4.46 14.34 -0.62 0.58 -0.18 0 -1.54 -2 -0.56 -0.88 -1.48 0.44 -1.2 0.88 1.68 2.68 -2.84 3.28 -1.42 6.42 0.42 0.94 -0.4 3.72 2.28 3.34a2.96 2.96 0 0 1 2.52 0.66c2 1.6 12.32 -6.72 13.12 -21.42 0.28 -4.94 -1.7 -6.34 -0.1 -7.18Zm-46.2 5.42c5.78 3.64 0.24 -1.9 8.94 12.38 -4 2.4 -4 2.64 -4.28 2 0 0 -2.84 -5.22 -4.68 -9.04 -3.24 -6.74 -6.72 -17.66 -6.58 -20 1.02 0.62 8.92 9.48 14.76 11.88a2.2 2.2 0 0 1 0.84 0.48 16.38 16.38 0 0 1 -8.72 0.86c-0.92 0.06 -1.08 0.94 -0.28 1.44Zm37.44 18.6c-0.92 0.9 -2.96 3.26 -4 2.48 -1.62 -1.12 -3.06 0 -2.86 -0.86 0.34 -1.64 -1.5 -1.8 -0.3 -2.62 3.76 -2.54 4.28 -2.6 6.36 -6a22.56 22.56 0 0 0 0.28 -21.04c-5.66 -11.84 -24.88 -28.78 -23.6 -29.76 4.78 -3.74 -0.2 -4.88 15.34 11.28 8.94 9.3 14.62 16.38 16 28.34a22.74 22.74 0 0 1 -7.22 18.18Zm-25.24 -59.02c-0.46 0.28 -0.72 0 -0.96 -0.3s-0.36 -0.04 2.6 -2.7c0.54 -0.48 0.24 -0.54 1.32 0.28a9.26 9.26 0 0 1 -2.96 2.72Zm-2 -2.18c-0.6 0.32 -0.72 -0.18 -0.96 -0.46s-0.44 0 2.56 -2.68c0.46 -0.4 0.5 -0.18 1.06 0.42a6.82 6.82 0 0 1 -2.62 2.72Zm-24 137.32c-14.84 -9.42 -12.5 -4.68 -28.52 -18.18 -4.56 -3.86 -8 -7.82 -8.12 -14.3 0 -2.44 1.22 -3.72 3.04 -5.38 0.94 -0.84 4.78 -0.76 6 -0.72a39.36 39.36 0 0 1 7.08 1.84c1.52 0.4 1.26 0.92 6.38 9.26 21.78 35.6 17.32 29.52 14.1 27.48Zm-6.98 29.4c-4 -5.7 0.52 -13.64 9.32 -12.48 13.34 1.76 9.48 1.38 12.18 4.9 0.8 1.04 16.7 30.66 16.66 30.62 -19.14 -9.68 -27.28 -7.82 -38.2 -23.04ZM268.98 302c-1.58 0.84 -42.56 24.38 -51.5 29.26 -31.18 17.04 -22.4 18.9 -55.74 -37.28 -2.82 -4.72 -38.72 -70 -47.76 -84.2 -20.62 -32.52 -32.7 -57.78 -40.2 -69.44 -0.14 0 -6 -9.4 -6 -11.52a0.58 0.58 0 0 0 0 -0.26c-1.84 -2.96 0.56 -9.44 1.08 -8.24 3.1 7.1 3.02 6.72 16.32 29.28 1.5 2.54 11.4 20.84 18 32.28 10.12 17.58 11.86 17.38 37.64 63.8 2.1 3.78 12.24 21.48 23.16 40.92 12.64 22.48 16.28 30.7 25.42 42.86 5.14 6.86 8.48 6 11.7 5.06 6 -1.82 20 -9.88 67.76 -36.94 0.44 -0.26 0.58 -0.2 0.6 0.36 -0.06 3.32 0.54 3.54 -0.48 4.06ZM90.84 150.6c0.3 0 6.98 -3.1 4.36 -7.5 -2.1 -3.54 0.48 -5.64 -1.14 -11.14s-2 -5.34 -0.8 -5.42c2 -0.12 5.18 2 5.52 7.14 0.68 10.32 10.5 5.52 13.22 4.66 1.22 -0.38 7.5 -0.7 6.2 -2.58 -0.54 -0.78 -1.1 -0.2 -1.7 0a12.56 12.56 0 0 1 -4.42 0.38c0 -0.58 0.82 -0.82 1.08 -0.84a15.3 15.3 0 0 0 5.04 -1.3c7.6 -0.96 6.78 3.66 5.12 4.96 -2.36 2 -7.38 3.38 -6.58 4.52 0.32 0.48 0.6 0.64 4 -0.78 2.4 -1 3.34 -2.4 4.16 -0.84s1.36 3.6 -0.58 4.9c-2.68 1.8 -4.5 2.32 -4 3.28 0.98 2 5.22 -3.14 6.34 -0.22 2 5.52 -5.12 5.84 -4.14 7.66s4.16 -2.68 4.24 -0.74a6 6 0 0 1 -4.76 4.96c-3.82 0.94 -2.96 2.28 -5.74 3.22 -1.82 0.64 -6.86 3 -9.9 3 -3.82 0 -4.72 -2.8 -8.52 -1.48 -0.84 0.28 -0.14 0.56 -8.42 -14.2 -0.58 -1.02 -0.38 -0.68 1.36 -1.64 0.12 0.04 0.1 0.06 0.06 0Zm117.62 120.48c-0.3 -2.12 -0.82 -2.5 0 -2.56 3.54 -0.22 3.7 -0.38 4 0.18 1.44 2.94 2.46 3.52 2.42 6.42 0 4.72 3.8 6 8.38 5.12 1.6 -0.32 1.56 -0.32 1.66 1.34 0 0 0.76 10 0.2 10 0 5.86 0.2 5.86 -0.46 6a22.24 22.24 0 0 1 -2.28 0.3c-4.92 0 -4.14 4.7 -10 5.58 -11.86 1.78 -10 -0.84 -14.2 0 -2.64 0.52 -6.12 -0.6 -6.7 -3.28 2.78 0.34 4.26 0.78 4.32 -0.44 0 -1.8 -7.1 0.12 -6.92 -5.32 0.1 -2.74 3.66 -0.72 5.48 -1.64 0.56 -0.26 1.08 -1.36 -1.38 -1.56 -2.88 -0.22 -5.58 -0.42 -5.76 -3.3 -0.26 -3.72 0.32 -2 7.46 -2.64a0.6 0.6 0 0 0 0.4 -1.1c-2 -1.32 -6 0.28 -8.5 -1.36a2.76 2.76 0 0 1 0 -4.6c2.78 -1.66 3.32 -1.7 4.12 -1.68 3.68 0 3.72 -1.08 5.72 -0.64 1.28 0.28 -3.32 1.78 -4.7 1.68 -1 0 -1.42 1.22 -0.26 1.52a7.38 7.38 0 0 0 4.28 -0.62c1.88 -0.84 13.84 0.46 12.72 -7.4Zm68.94 -62.14c2.56 5.34 10.46 18.44 10.48 18.48 -1.38 0.24 -14.66 -1.84 -17.02 -2 -15.14 -0.96 -19.88 0.34 -43.2 4.52 -9.4 1.7 -15.46 2.74 -25.38 7.88 -7.2 3.74 -12 6.26 -15.26 10.5a10.22 10.22 0 0 0 -0.46 12c5.48 8.18 19.18 7.54 19.72 8.92 2.24 5.56 -2 6.24 -6.92 7 -0.8 0.12 -1.66 -3.02 -4.24 -2.2 -3.7 1.2 -4.84 0.34 -6.14 0.96 -3.16 1.52 -5.86 2.6 -5.26 6.66 0.36 2.46 2.38 2.42 2 3.42a6.34 6.34 0 0 0 0.68 5.76c0.26 0.48 1.54 1.22 1.36 1.42 -0.94 1.16 -0.5 2.44 -0.36 3.7 0.32 2.8 2.46 2.66 2.42 3.7 -0.12 2.86 1.56 3.76 4.18 5.14s5.72 0 7.28 0.62c2.58 0.98 14.4 0.8 17.46 -3.16a5.42 5.42 0 0 1 4.72 -2.7c0.8 0 0.44 0.3 1.18 2.94 0.54 1.86 1.44 2.42 7.86 2 11.32 -0.72 9.5 3.84 9.62 -22.5a17.82 17.82 0 0 0 -1.42 -6.84c-0.86 -2.12 -3.34 -1.32 -11.34 -1.48 -2.16 0 -4.76 -0.3 -5.52 1.88 -1 2.9 -0.86 2.94 -1.44 3.06 -2.4 0.52 -5.3 -0.16 -5.52 -2.64a12.24 12.24 0 0 0 -2.18 -7.06c-0.76 -1.14 -1.38 -0.46 13.54 -3.68 5.62 -1.2 8 -2.58 13.66 -0.22 13.26 5.52 16.92 7.82 28 8.92 0.42 0 0.56 0.18 0.54 0.6 -1.52 20.74 -0.42 19.42 -1.56 20 -56 30.9 -68.52 42.78 -75.26 36.14 -5.78 -5.7 -13.72 -20.34 -14.58 -21.88 -17.02 -31.62 -29.6 -53.44 -40 -71.5 -4.94 -8.56 -9.62 -17.12 -13.68 -24 -8.48 -14.16 -15.38 -24.96 -22.82 -38 -4.54 -7.82 -4.66 -7.08 -3.1 -7.3 2.22 -0.3 3.08 2 7.1 1.8 2 0 3.04 -0.28 10.8 -3.32 2 -0.82 2.38 -2.2 4.66 -2.78 3.86 -1 7.76 -5.14 6 -8.72 -0.58 -1.24 1.68 -1.64 0.4 -5.36a3.58 3.58 0 0 0 -1.54 -2.38c-0.62 -0.32 2.6 -3.16 -1.24 -7.46 -0.66 -0.74 2.24 -3.8 -1.42 -6.7a9.12 9.12 0 0 0 -8 -0.36c-2.86 1.22 -5.62 0.14 -6.24 4 0 0.32 0 0.54 -0.42 0.64 -14.28 4 -4.96 -5.1 -12.96 -11.6a4.8 4.8 0 0 0 -4.48 -0.96c-2.88 0.86 -0.72 3.74 0.4 8.68 0.78 3.46 -0.98 5.1 0.76 9.8 1.36 3.64 -0.76 4.56 -4.38 6 -0.74 0.32 -0.92 0.22 -1.3 -0.46 -14.36 -25.68 -11.82 -20.12 -12.74 -22.22 -1.82 -4.16 -10.38 -12.86 3.62 -23.18 6 -4.4 53.9 -28.66 56 -29.68 0.9 -0.46 0.68 -0.98 2.44 4.98 0.46 1.6 -5.02 2.36 -6.26 8.66 -1.4 7.14 4.72 13.66 13.06 12.36 1.86 -0.3 0 1.56 2.94 2 2.36 0.42 0.78 2 2.24 2.22 1.8 0.16 0.66 2.34 2.16 2.32 0.34 0 0 0 14 15.4 7.54 8.24 7.72 8 12 17.52a5.74 5.74 0 0 1 0.42 1.84c0 0.2 -26.3 15.78 -27 14.54s-2 -2.96 -2.76 -4.5 -1.84 -3.6 -2.8 -5.38c-0.52 -1 0.68 0 4.48 -1.5 1.6 -0.62 3 -1.52 1.72 -2.68 -1.86 -1.68 -3.5 -0.94 -9.14 -6.12 -6 -5.48 -9.68 -9.6 -9.84 -6.66 -0.64 10.48 11.36 31.26 11.38 31.26 0.58 1.14 -28.38 16.48 -30.4 19.42 -0.7 1.02 7.62 14 16 27.28 8 12.5 14 24 29.52 49.4 2.12 3.46 -0.44 1.82 73.02 -39.18 6.88 -3.84 6.36 -4 7.5 -3.88 0.62 0 1.38 -0.26 1.88 0s0.5 1.1 0.9 1.54c3.64 4 5.7 1.62 5.88 2.56 0.26 1.52 1.56 2.12 2.62 2.94a4 4 0 0 0 3.32 0.52c1.22 -0.2 1.7 2.38 5.12 1.48s3.44 -0.7 6.18 -4c2 -2.34 2.42 -1.04 5.18 -4.36a48.5 48.5 0 0 0 5.44 -6.74c0.34 -0.46 0.56 -0.5 1.74 1.96Zm-37.18 91.52c0.4 2.6 -4.56 1.84 -4.58 1.78 -1.64 0.14 -9.04 1 -8.82 0 0.76 -3.84 0.16 -16.5 -0.22 -22.14 -0.36 -5.08 -0.84 -4.72 0.22 -4.74a16.18 16.18 0 0 1 3.26 0.26c5.16 0.9 8.82 -1.54 9.48 1.48a16.52 16.52 0 0 1 0.66 4.34c-0.22 7.22 0 19 0 19.02Zm32.2 -100.14c2.74 4.82 4.38 3.48 -4.58 13.5 -1.28 1.44 -2.8 0.98 -4.58 3.62a6 6 0 0 1 -6.7 2.7c-1.42 -0.44 3.7 -2.12 2.4 -3.62 -0.96 -1.1 -1.76 1.34 -5.42 2.42a3.7 3.7 0 0 1 -3.62 -2c-0.44 -0.98 0.2 -1.18 2.36 -3.42 1.38 -1.42 0.48 -2.62 -1.02 -1.46 -3.72 2.88 -5.06 4.68 -8 0.48 -0.54 -0.74 0.62 -0.68 4.68 -5.48 0.54 -0.66 0 -1.52 -0.74 -1.04 -3.36 2.14 -2.98 2.9 -5.42 4.42a2.82 2.82 0 0 1 -4.58 -2.44c0.92 -3 0.92 -3.38 1.84 -4.28 2.36 -2.28 2.5 -4.34 3.74 -4.42a10 10 0 0 1 -2.42 4.54c-0.7 0.58 0 2.54 1.88 0.48s1.28 -2.82 2.84 -4.44c4.22 -4.44 4.2 -6.22 4.78 -8.14 -1.22 -7.28 -8.24 -4.3 -9.5 -11.18a5.22 5.22 0 0 1 0.14 -2.16c0.18 -0.82 0.42 -0.82 1.04 -0.32 11.36 9.04 6.98 2.46 14.5 8.54 2.72 2.2 5.22 0.26 7.48 -1.7 1.04 -0.92 5.26 8.96 8.9 15.4Zm-9.68 -17.66c-1.54 2.44 -4.56 4 -6 2 -4.36 -6 -0.84 -2.62 -23 -40.74 -15.86 -27.28 -14.6 -25.1 -16.44 -24.28s-31.52 17.38 -31.56 17.4c-1.48 0.88 0 -2 -9.04 -13.72 -3.54 -4.6 -10.3 -11.38 -16 -17.7 -1.82 -2 -3 -3.78 -4.52 -5.34s-0.62 -1.72 -1.54 -2c-1.26 -0.4 -1.02 -0.92 -1.14 -2s-1.36 -0.2 -1.54 -0.76 -0.48 -0.76 -0.28 -1.34a21.88 21.88 0 0 0 1.1 -4.18 10.3 10.3 0 0 0 -7.4 -11.38c-4.54 -1.12 -5.38 1.06 -6 -1.1 -0.28 -0.84 -1.08 -3.6 -1.08 -3.7 0 -1.84 -4 0 12.38 -8.38 37.12 -19.04 32.94 -19.28 55.54 19.26 0.28 0.48 0.28 0.74 -0.26 1.12 -7.08 4.92 -5.38 -1.24 -11.14 -4 -3.28 -1.5 -4.52 -3.7 -7.34 -7.32s-8.12 4.32 -1.78 10.34c2.28 2.18 3.6 2.6 3.84 4.96s-2.96 4.56 -4.66 6c-0.32 0.24 -1.32 -0.36 -2.12 -0.52 -2.64 -0.52 -2.38 1.68 -6.42 4a14.24 14.24 0 0 0 -2.94 4.22 4.76 4.76 0 0 0 3.7 6.5c1.38 0.14 -0.54 2.24 4.12 5.08 0.52 0.32 2 0.2 2 0.66a5.58 5.58 0 0 0 5.08 4.8c0.88 0 0.96 2.68 4.72 2.66a8.18 8.18 0 0 0 6.58 -2.26c2.4 -1.86 2.88 -0.72 5.04 -2.26 8.34 -6 9.14 -5.42 10.74 -12.78a2.86 2.86 0 0 1 0.24 -0.62c0.74 -1.32 1.14 -1.36 1.88 0 -0.08 -0.14 45.86 76.4 45.24 77.38Z" fill="#000001" stroke-width="1"></path>
      <path d="M104.6 95.66c-1.6 2.5 -2.14 3.6 -4 6.34 -0.3 0.44 -0.22 1.28 0.9 1.1 0.8 -0.14 1.84 -0.84 2.56 0.12 3.06 4 2.72 0.38 2.52 -7.62 0.02 -1.22 -1.1 -1.32 -1.98 0.06Z" fill="#000001" stroke-width="1"></path>
      <path d="M251.82 248c0.98 0.32 1.38 -0.32 1.64 -1.36 1.34 -5.22 3.22 -11.08 0.92 -14.98a1.1 1.1 0 0 0 -1.36 -0.28 1.12 1.12 0 0 0 -0.24 1.36c2.48 3.94 -2.46 14.82 -0.96 15.26Z" fill="#000001" stroke-width="1"></path>
      <path d="M164.68 67.3c-1.56 0.8 0.36 3.36 1.68 4.5a1.34 1.34 0 0 0 1.54 0c1.2 -0.86 -1.5 -5.38 -3.22 -4.5Z" fill="#000001" stroke-width="1"></path>
      <path d="M168 63.44c-1.18 0.22 -1.02 2.28 -0.34 3.26 2.34 3.1 2.68 3.3 3.32 3.3 1.88 0 2 -1.26 0.9 -2.74 -2.52 -3.58 -2.54 -4.06 -3.88 -3.82Z" fill="#000001" stroke-width="1"></path>
      <path d="M167.2 72.18c0.16 0.12 0.1 0 0.26 0 -0.16 -0.18 -0.1 -0.18 -0.26 0Z" fill="#000001" stroke-width="1"></path>
      <path d="M114.62 148.12c1.76 1.74 0.12 3.4 1.5 5.32s1.84 2 1.84 7.4c0 1.48 1.66 1.5 1.78 0.12s-0.2 -2.7 -0.14 -3.52c0.1 -1.28 0 -2 -1.76 -4.42 -1.28 -1.74 0.4 -3.46 -1.38 -5.24 -2.94 -2.96 -1.16 -5.1 -3.54 -7.5 -0.68 -0.7 -2 -0.14 -1.12 0.9 1.58 2.1 0.2 4.36 2.82 6.94Z" fill="#000001" stroke-width="1"></path>
    </g>
  </g>
</svg>