<svg xmlns="http://www.w3.org/2000/svg" viewBox="0 0 400 400" id="Spam--Streamline-Free-Illustrations" height="400" width="400">
  <desc>
    Spam Streamline Illustration: https://streamlinehq.com
  </desc>
  <g>
    <g>
      <path d="m162.96 216.72 26.06 -16.7 135.32 28.54 -28.24 21.48 -133.14 -33.32z" fill="#c6c6c6" stroke-width="1"></path>
      <path d="M143.8 364.2a202.92 202.92 0 0 0 28.96 0.46c14.78 -0.94 36.14 1.24 43.54 -0.46s1.22 6.42 26.6 2.26c0 0 11.18 0.76 20 0.56s9.84 4.74 9.46 -4.16 -1.32 -16.3 -1.32 -19.14a106.54 106.54 0 0 0 -1.52 -11.16l-88.46 -22s-18.7 35.26 -37.26 53.64Z" fill="#edc294" stroke-width="1"></path>
      <path d="M211.3 246.4a1.04 1.04 0 1 1 1.44 1.48c-0.88 0.92 -2.54 -0.42 -1.44 -1.48Z" fill="#5479d6" stroke-width="1"></path>
      <path d="M215.48 246.68c0.64 -0.96 2.62 0.32 1.46 0.94 -0.94 0.48 -1.94 -0.22 -1.46 -0.94Z" fill="#aad852" stroke-width="1"></path>
      <path d="M218.8 248.34c0.9 -0.16 2.2 0.56 1.9 1.68a1.58 1.58 0 0 1 -2.46 0.16 1.06 1.06 0 0 1 0.56 -1.84Z" fill="#52db93" stroke-width="1"></path>
      <path d="M218.28 252c1.54 0 2.78 2.4 1.06 3.12a1.88 1.88 0 0 1 -2.46 -2.16 1.46 1.46 0 0 1 1.4 -0.96Z" fill="#a65aff" stroke-width="1"></path>
      <path d="M215.62 254.56a1.54 1.54 0 0 1 -1.68 2.32 2.14 2.14 0 0 1 -2 -1.58c-0.26 -2.1 2.68 -2.56 3.68 -0.74Z" fill="#ffeb57" stroke-width="1"></path>
      <path d="M209.6 249.72a1.62 1.62 0 0 1 0.2 3.22c-2.56 0.16 -2.86 -3.26 -0.2 -3.22Z" fill="#ff55a2" stroke-width="1"></path>
      <path d="M216.4 250.7a1.48 1.48 0 0 1 -1.74 1.46c-1.6 -0.28 -2.36 -1.68 -1.84 -2.64a2 2 0 0 1 3.58 1.18Z" fill="#50c1ff" stroke-width="1"></path>
      <path d="M101.74 157.26c4.7 4 4.86 6.6 5.1 7.54A90.4 90.4 0 0 0 94 159.5a66.22 66.22 0 0 0 -11.78 -3.84 55.16 55.16 0 0 0 -15.04 -0.7c-0.44 0 -0.36 0 -0.24 -0.4a8.14 8.14 0 0 1 6.76 -5.76c0.9 -0.16 1.82 -0.26 2.72 -0.4 2.34 -0.36 7.7 1.14 10.14 1.76a41 41 0 0 1 15.18 7.1Z" fill="#d4f2e2" stroke-width="1"></path>
      <path d="M388.3 232.14a2.36 2.36 0 0 1 -0.52 1.5c-2 2.42 -81.84 104.98 -83.16 106.58 -0.98 1.2 -0.24 -0.26 -0.36 -13.44a3.18 3.18 0 0 1 0.8 -2.24c2.64 -3.14 82.36 -102.58 83.14 -103.34 0 0.16 0 0.32 0.1 0.46 0 1.38 -0.04 8.34 0 10.48Z" fill="#fff5db" stroke-width="1"></path>
      <path d="M386.86 218.92c0.62 0.1 0.64 0.16 0.26 0.62 -1.26 1.58 -81.56 101.08 -84 104.1a1.3 1.3 0 0 1 -1.58 0.48c-4.98 -1.32 -123.34 -30.96 -123.52 -31.04 0.62 -0.52 41.34 -23.7 41.54 -23.82 1.42 -0.82 1.74 -1.02 2.72 -0.88s2 -0.6 2.8 -1.12a10.52 10.52 0 0 0 1.72 -1.4 1.58 1.58 0 0 1 1.64 -0.44c4 1.1 47.66 12.18 49.52 12.66a3.14 3.14 0 0 0 2.88 -0.64c2.9 -2.28 53.04 -42.38 55.88 -44.68 0.46 -0.38 0.52 -0.72 0.66 -2a24 24 0 0 0 0.2 -3.6c-0.14 -0.9 0.5 -4 2 -12.9 0.26 -1.38 0.24 -1.36 1.62 -1.16 2.22 0.22 45.22 5.74 45.66 5.82Z" fill="#fff5db" stroke-width="1"></path>
      <path d="M356.76 102c0.38 0 0.42 0.18 0.34 0.54 -0.44 2.38 -9.18 53.04 -9.4 54.5 -0.12 0.92 -0.18 0.98 -1.12 1.1l-1.42 0c-0.46 0 -0.6 -0.22 -0.52 -0.62 0.22 -1.38 8.72 -50.6 8.92 -52s-0.24 -2 -1.84 -2.22c-3.12 -0.3 -33.58 -3.46 -34 -3.5s-0.42 -0.4 -0.26 -1.08c0.1 -0.34 0 -0.78 0.3 -0.96s0.12 0.24 39 4.24Z" fill="#c6c6c6" stroke-width="1"></path>
      <path d="M351.24 105.38c0.46 0 0.66 0.26 0.56 0.74 -0.38 2 -8.62 49.06 -9.04 51.56 -0.12 0.74 0 0.72 -0.9 0.76 -7.46 0.38 -8.96 0.54 -9.32 1.16 -0.76 1.3 0.76 27.02 0.94 28.52 0.12 0.86 0.42 1.12 1.28 1.14 1.62 0 2.6 -0.52 2.44 0.42 -1.56 9.62 -4.66 26.94 -4.68 26.98 0 0.5 -0.32 0.54 -0.7 0.46l-137.06 -26.6c-0.78 -0.14 -0.82 -0.2 -0.7 -0.98 0.5 -3.02 16 -96.88 16.16 -98.3 0.14 -0.78 0.18 -0.8 0.92 -0.74l57.16 6c1.62 0.18 1.32 0.22 1.34 1.48 0 4.3 -0.4 5.86 -0.42 7.56 0 0.74 1.22 1.26 1.56 0.3a33.64 33.64 0 0 0 0.56 -8.32c0 -0.42 0.16 -0.6 0.52 -0.58 0.9 0 1.78 0.18 2.66 0.24 0.36 0 0.46 0.18 0.44 0.52a44.48 44.48 0 0 1 -0.34 4.9c-0.12 1.06 1.16 1.48 1.52 0.62a18.32 18.32 0 0 0 0.5 -5.16c0 -0.4 0 -0.66 0.6 -0.58 2.68 0.32 32 3.38 32.16 3.4s0.54 0.22 0.5 0.64a27.86 27.86 0 0 0 0.4 7.86 0.66 0.66 0 0 0 0.84 0.36c1.1 -0.46 -0.22 -2.82 0.26 -7.88 0 -0.78 0 -0.78 0.84 -0.7l2.54 0.26c0.42 0 0.62 0.2 0.62 0.72s0.14 5.2 0.26 5.42c0.38 0.58 1.02 0.54 1.1 0a22.92 22.92 0 0 0 0.22 -5.26c0 -0.52 0.24 -0.7 0.76 -0.64s33.28 3.72 33.5 3.72ZM338 146.34c1.1 0 2.12 -0.64 1.9 -2 0 0 -2.1 -25.78 -2.28 -27.44 0 -0.82 -0.38 -1.06 -1.2 -1.02 -1.12 0 -38.9 3.62 -39.48 3.72a1.4 1.4 0 0 0 -1.42 1.68c0 1.12 2.86 24.7 3.14 26.96a1.68 1.68 0 0 0 1.24 1.2c1.68 0.04 -0.3 0.06 38.1 -3.1Zm-16 38.28c0.16 -0.84 0.26 -1.5 -0.76 -1.76s-32 -6.42 -35.58 -7.08a1.4 1.4 0 0 0 -1.9 1.24c-4.82 23.58 -4.68 22.86 -4.74 23.64 0 1.84 0.98 2 1.66 2.18 2.62 0.82 11.16 2.38 34.54 6.98 1.22 0.24 1.7 0.32 2 -0.9 0.62 -3.32 4.32 -22.14 4.78 -24.3Zm-26 -14.12c2.8 -1.58 1.84 -4.48 1.32 -6.76s-12.26 -35.74 -17.2 -47.3a5.88 5.88 0 0 0 -1.64 -2.2 3.78 3.78 0 0 0 -4.98 0c-3.5 2.82 -26.16 31.76 -28.9 35.32 -1.74 2.24 -3.7 4.5 -3.82 6.22s0.74 3.38 4 4.26c2 0.5 42.56 9.64 47.62 10.7a5.06 5.06 0 0 0 3.6 -0.24Zm-38.28 24.32c1.3 0 1.66 0 1.62 -1.58 0 -0.2 0 -18 -0.16 -22.12 0 -1.28 -0.18 -1.66 -1.48 -1.78 -0.4 0 -28.22 -0.28 -31.38 -0.28a1.08 1.08 0 0 0 -1.24 1.04c0 0.32 0.18 20.36 0.22 22s0.12 1.52 2.5 1.64 26.06 1 29.92 1.08Zm-1.42 -84.62c0.24 -0.9 0 -1.32 -0.72 -1.52 -2.86 -0.72 -37.52 -9.3 -38.36 -9.46s-1.18 0 -1.44 0.88c0 0.3 0 0.6 -0.18 0.9 -6.24 24.86 -6 23.4 -5.7 24.52a1.78 1.78 0 0 0 1.2 1.1c0.2 0 34.14 9.84 36.14 10.24a1.4 1.4 0 0 0 1.7 -0.96c0.28 -0.7 7.24 -25.22 7.36 -25.7Zm-22.9 33.56c0 -2 -0.68 -1.84 -2.28 -1.84 -3.54 0 -24 -0.54 -25.12 -0.4s-1.04 1.22 -1.04 1.82c0 5.46 -0.32 16.36 -0.32 18.4 0 1.12 0.64 1.1 1.76 1.14 19.68 0.66 22.6 1.06 25.5 0.82 0.98 0 1.06 -0.38 1.16 -2.5 0.1 -4.2 0.3 -14.82 0.34 -17.44Z" fill="#ff8e92" stroke-width="1"></path>
      <path d="M342.1 189.46c-0.36 2 -5.72 32.86 -6.12 35.28 0 0.44 -0.2 0.58 -0.66 0.5 -0.12 0 -144.18 -29 -146.18 -29.34 -0.36 0 -0.44 -0.22 -0.38 -0.56 0.58 -3.46 17.54 -108.16 17.68 -109 0 -0.48 0.32 -0.58 0.78 -0.52 2.54 0.32 59.76 6.46 61.06 6.66s1.1 0.18 1.16 1.42a3.34 3.34 0 0 0 0 0.38c0 0.44 -0.16 0.54 -0.54 0.52 -0.78 0 -57.36 -6 -58.92 -6.16 -0.98 0 -1.54 0.34 -1.42 1.3a14 14 0 0 1 -0.4 3.44c-0.24 2 -15.8 95.36 -16.12 97.24 -0.14 0.86 0 1.26 1 1.44s124.82 24.52 139.72 27.36c0.84 0.16 1.26 0 1.4 -0.94 0.32 -2 4.12 -24 4.66 -27.06 0.36 -2 0 -2.48 0.94 -2.48 1.66 0 2.5 -0.38 2.34 0.52Z" fill="#c6c6c6" stroke-width="1"></path>
      <path d="M335.54 228.66c0.4 -0.38 0.34 0.12 0.32 0.22a18 18 0 0 1 -0.32 2.22 3.88 3.88 0 0 1 -1.24 1.18c-2.32 1.8 -53.44 43.14 -53.6 43.28 -0.52 0.42 -0.28 -0.96 -0.28 -2.84 0 -0.84 -1.5 0.98 53.4 -42.78a21.3 21.3 0 0 0 1.72 -1.28Z" fill="#c6c6c6" stroke-width="1"></path>
      <path d="M315.58 97.54c0.4 0 0.46 0.18 0.4 0.48a10.76 10.76 0 0 1 -0.24 1.4 0.48 0.48 0 0 1 -0.42 0.28c-1.12 -0.1 -2.22 -0.24 -3.34 -0.4 0 0 -0.2 -0.2 -0.2 -0.32a5.52 5.52 0 0 1 0.12 -0.8c0.14 -0.92 0.14 -0.92 1.08 -0.9s1.72 0.22 2.6 0.26Z" fill="#c6c6c6" stroke-width="1"></path>
      <path d="M309.88 97c0.44 0 0.64 0.2 0.52 0.94 -0.2 1.14 -0.2 1.12 -1.36 1 -3.62 -0.34 -30.72 -3.2 -31.84 -3.24s-0.6 -0.22 -0.8 -2.26c27.78 2.74 32.16 3.44 33.48 3.56Z" fill="#c6c6c6" stroke-width="1"></path>
      <path d="M301.12 326c0.86 0.2 1.52 0.72 1.48 1.62 0 2 -0.2 10.48 -0.22 12.6 0 0.88 0 0.9 -0.86 0.68 -0.2 0 -143 -37.54 -143.32 -37.78 0 0 0.14 -0.16 0.22 -0.2 4 -1.72 16.2 -8 16.24 -8a1.72 1.72 0 0 1 1.36 -0.18Z" fill="#fff5db" stroke-width="1"></path>
      <path d="M296 165.76c0.46 1.88 -0.46 3.86 -3.9 2.94 -9.42 -2.5 -36.82 -8 -45.74 -10a6.74 6.74 0 0 1 -3.76 -1.72 1.7 1.7 0 0 1 0 -1.82c1.24 -2.38 29.44 -37.3 31.74 -39.3a2.3 2.3 0 0 1 3.2 0.26c2.28 2.48 16.96 43.14 18.46 49.64Zm-17.78 -37.12c0.32 -1.16 0 -1.46 -1.1 -1.64 -5.62 -0.78 -7.5 -1.7 -7.48 0.78 0 1.36 -1.14 11.58 -1.72 16.76a36.52 36.52 0 0 0 -0.28 4c0.12 0.58 0.62 0.82 2.68 1.12 1.62 0.26 1.58 0.22 2.1 -1.4s5.4 -17.94 5.88 -19.62Zm-6.78 29.5 0 -4.4c0 -0.72 -0.24 -1.14 -1.12 -1.3l-2.22 -0.34c-0.86 -0.12 -1.2 0 -1.5 0.88 -0.52 1.34 -1 2.68 -1.46 4s-0.28 1.26 4.74 2.4c1.1 0.26 1.62 -0.16 1.64 -1.24Z" fill="#ffd152" stroke-width="1"></path>
      <path d="M278.42 272.52c0.36 0 0.46 0.22 0.42 0.54a17.02 17.02 0 0 1 -0.14 2.86c0 0.56 0 0.56 -0.68 0.4 -6.28 -1.64 -49.2 -12.56 -49.64 -12.82 0.54 -0.38 2.2 -1.38 3.36 -2.2a1.4 1.4 0 0 1 1.26 -0.18Z" fill="#c6c6c6" stroke-width="1"></path>
      <path d="M274.64 93.3a7.64 7.64 0 0 1 0.14 2c0 0.36 -0.76 0 -3.1 -0.18 -0.34 0 -0.36 -0.22 -0.38 -0.48 -0.1 -1.76 -0.44 -1.74 0.44 -1.72a15.54 15.54 0 0 1 2.9 0.38Z" fill="#c6c6c6" stroke-width="1"></path>
      <path d="M261 246.48a1.34 1.34 0 0 1 0.14 0.96c-1.08 3.2 0.78 8.54 -1.6 7.72 -1.1 -0.38 -1.62 -0.84 -1.68 -2a10.96 10.96 0 0 0 -1.06 -5.66 0.8 0.8 0 0 0 -0.36 -0.32 9.4 9.4 0 0 0 -5.18 -1.24c-5.48 1.32 -6.16 1.14 -8.16 3.78 -4.78 6.3 -9.36 7.62 -14.88 11.68 -0.32 0.24 -0.36 0.1 -0.42 -0.18a14 14 0 0 0 -3.82 -6.26c-0.3 -0.24 -0.36 -0.4 -0.14 -0.74a3.52 3.52 0 0 0 -0.34 -4.8 13.02 13.02 0 0 0 -4.16 -3.2c-0.34 -0.18 -0.32 -0.3 -0.12 -0.5a100.6 100.6 0 0 0 11.1 -12.4c1.3 -1.56 1.06 -1.7 6.74 -4.48a6.14 6.14 0 0 1 3.46 -0.74 15.02 15.02 0 0 1 1.88 0.42s0 0.22 0 0.24c-1.5 0.92 -2.74 1.14 -5.38 2.86 -0.8 0.44 -0.22 1.78 1.12 1.28a6.72 6.72 0 0 0 1.36 -0.7c4.12 -2.62 6.68 -2 9.16 -2.86a3.66 3.66 0 0 1 3.54 2.38c0 0.46 -0.18 0.6 -0.58 0.7a59.2 59.2 0 0 0 -8.56 2.24c-0.96 0.38 -0.18 1.54 1.24 1.24 7.86 -1.62 7.66 -1.78 8.98 -2a5.1 5.1 0 0 1 3.6 0.84c2.42 1.6 2.14 2.9 2.62 6 0 0.2 0 0.82 -0.58 0.38A14.62 14.62 0 0 0 256 240c-0.2 -0.12 -0.26 -0.56 -0.38 -0.8s-0.3 -0.76 -0.48 -1.12a0.84 0.84 0 1 0 -1.5 0.72l0.26 0.74a12.98 12.98 0 0 0 -4.48 0c-0.86 0.32 0 1.04 0.9 1.16a34.22 34.22 0 0 1 6.92 1.52c1.46 0.42 3.02 2.9 3.76 4.26Z" fill="#ffc6a6" stroke-width="1"></path>
      <path d="M220.7 266c0.16 0.48 0 0.56 -0.28 0.7 -58.92 32.94 -35.2 20 -46 26 -3.82 2 -23.06 12 -28.72 12 -13.78 -0.28 -20.72 -8.66 -30 -22.38 -0.28 -0.44 -4 -6.18 -4.2 -6.7a1.64 1.64 0 0 0 -1 -1.2c-0.48 -0.16 -0.4 -0.34 -0.16 -0.62 20.28 -21.3 20.32 -17.52 29.46 -23.8 0.28 -0.2 0.42 -0.32 0.66 0 2 3.44 7.34 15 11.28 18.3a4.6 4.6 0 0 0 4 0.76 70.78 70.78 0 0 0 8.4 -1.88c12.36 -3.74 9.24 0.62 37.12 -10.58 1.22 -0.5 2.42 -1.1 3.62 -1.68s0.96 -0.48 1.68 0.26a29.44 29.44 0 0 0 7.28 4.64c2 0.92 3.18 -0.32 4 0.5a15.78 15.78 0 0 1 2.86 5.68Zm-22.62 2a0.6 0.6 0 0 0 -0.1 -0.3 4.52 4.52 0 0 0 -6 -2.7 4 4 0 0 0 -2.42 1.76 3.86 3.86 0 0 0 -0.6 2.92c0.22 0.9 -0.48 0.62 -5.2 2.84 -0.72 0.34 -0.64 -0.16 -1.56 -1.6 -0.36 -0.6 -0.52 -0.64 -1.06 -0.38s-0.8 0.56 -0.2 1.62c0.72 1.42 0.72 1.42 -0.76 2 -1 0.34 -0.54 0 -1.82 -1.72a0.6 0.6 0 0 0 -0.98 0 0.86 0.86 0 0 0 -0.28 1.1c0.2 0.4 0.4 0.8 0.64 1.18s-0.2 0.62 -2 1.3c-0.22 0.1 -0.34 0.1 -0.48 -0.16s-0.58 -0.98 -0.86 -1.5a0.822 0.822 0 0 0 -1.56 0.52 11.28 11.28 0 0 0 0.68 1.46c0.38 0.66 -0.2 0.56 -2.3 1.46 -3.02 1.32 -4.88 2.2 -5.22 2.26 0.12 -0.46 0.26 -0.42 0.46 -0.7a6 6 0 0 0 1.06 -3.88c0 -0.68 -0.58 -1.24 -1.14 -1.2 -1 0 -2.46 0.52 -2.16 1.46a0.84 0.84 0 0 0 1 0.54c0.6 0 0.42 0.28 0.34 0.56 -0.56 2 -1.54 2.54 -2.62 4.1a1.42 1.42 0 0 0 1.08 2.34 19.76 19.76 0 0 1 6.14 1.28c0.18 0 0.28 0.3 0.4 0.46a3.68 3.68 0 0 0 -0.44 0.34c-0.26 0.24 -0.7 0.48 -0.72 0.76s0.3 0.64 0.58 0.86a1.14 1.14 0 0 0 0.78 0.14 2 2 0 0 0 1.3 -3.34c-1.42 -1.8 -3.76 -1.46 -5.2 -2 0.7 -0.52 6.26 -2.74 7.06 -3.08a0.68 0.68 0 0 1 1.04 0.42 8.42 8.42 0 0 0 0.68 1.26 0.7 0.7 0 0 0 0.96 0.34c0.76 -0.36 0.78 -0.68 0.58 -1.18s-0.5 -1.14 -0.74 -1.72c0.6 -0.28 1.24 -0.54 1.84 -0.86s0.26 0 1.16 1.5c0.34 0.52 0.68 0.58 1.3 0.28s0.4 -0.64 0.26 -1.04c-0.48 -1.54 -1.06 -1.48 0 -2 2.2 -0.94 1.08 -0.26 2.56 1.46 0.36 0.42 0.74 0.4 1.28 0s0.36 -0.62 0.2 -1c-0.68 -1.56 -1.36 -1.82 -0.46 -2.24s2.18 -1.08 3.32 -1.56c1.72 -0.72 1.32 -0.78 2.56 0.38a4.82 4.82 0 0 0 6.62 -0.5c1.24 -1.16 0.92 -2.7 0.92 -4.14Z" fill="#ffc6a6" stroke-width="1"></path>
      <path d="M334 226.9c-152.7 -30.36 -145.2 -29.86 -146.5 -29.02 -2 1.24 -43.66 26 -46.98 28 -0.38 0.22 -0.46 0.38 -0.34 0.8 3.76 11.46 1.26 4.38 3.5 9.78 0.4 0.92 -2.78 -0.46 60.36 15.6 0.62 0.16 0.7 0.14 0.9 -0.56a6.72 6.72 0 0 1 1.32 -2.74 18.7 18.7 0 0 1 4.18 -3.76 6 6 0 0 1 2.38 -0.88 9.6 9.6 0 0 1 4 0.72c0.76 0.22 0.7 0.26 1.26 -0.32 4.72 -5.22 3.62 -3.36 9.36 -10.38 0.16 -0.2 0 -0.32 -0.52 -0.48l-63.82 -16c-0.6 -0.16 -0.62 -0.7 -0.74 -1.14s0.3 -0.58 0.64 -0.78c0 0 22 -13.62 24.92 -15.28a2 2 0 0 1 1.14 -0.36s2 0.56 134.16 27.44c2 0.4 1.78 1.6 0.52 2.6 -2.44 2 -24.12 18.84 -26 20.38a2.6 2.6 0 0 1 -2.58 0.36c-35.52 -8.74 -33.4 -8.5 -33.58 -8s-0.2 0.76 0 0.94a10.7 10.7 0 0 1 1.18 2.14 2.14 2.14 0 0 1 0.28 1.44c-0.46 2.32 -0.38 0.8 -0.38 6.7 0 2.7 -1.36 3.56 -3.18 3.14a2.86 2.86 0 0 1 -0.68 -0.18c-1.08 -0.5 -2.1 -1.1 -2.3 -2.4 -0.36 -2.3 -0.28 -4.32 -0.68 -5.54a0.78 0.78 0 0 0 -0.48 -0.42c-2 -0.8 -2.78 -1.06 -3.82 -0.78l-5.6 1.52a0.7 0.7 0 0 0 -0.4 0.36c-2.4 4.98 -10.14 9.52 -10.18 9.56a4.36 4.36 0 0 0 -0.44 0.42c1.76 0.7 34.86 8.76 43.24 10.98a2.2 2.2 0 0 0 2.2 -0.46c0.68 -0.58 53.04 -42 54 -42.78 0.28 -0.58 -0.2 -0.58 -0.34 -0.62Zm-117.28 6.78c0.64 0.24 0.78 0.74 0.26 1.22 -3.34 3.1 -14.2 12 -15.36 12.84a4.76 4.76 0 0 1 -0.9 0.46c-7.82 -1.7 -33.46 -8.54 -56.66 -14.36 -1.38 -0.2 -1.24 -1.76 0.32 -1.38 1.16 0.28 54.84 14 55.64 14.16a1.06 1.06 0 0 0 1.1 -0.24c2.62 -2.2 13.68 -11.18 13.88 -11.36s0.32 -0.26 0 -0.36c0 0 -52.54 -14 -54 -14.46a0.98 0.98 0 0 0 -0.94 0c-3.1 2 -16.34 9.88 -16.76 10a0.6 0.6 0 0 1 -0.66 -0.86c0.28 -0.56 0.2 -0.24 16.38 -9.8 0.92 -0.56 1.08 -0.86 2.12 -0.6 0.06 0.02 55.36 14.66 55.56 14.74Z" fill="#c6c6c6" stroke-width="1"></path>
      <path d="M202.66 253.5c0.12 0 0.34 0.16 0 0.34l-0.36 0.2a22.84 22.84 0 0 1 -4.42 1.8s-47.18 -12.12 -50.28 -12.82a1.64 1.64 0 0 1 -1.26 -1.04c-0.32 -0.8 -0.82 -1.5 -1.2 -2.26s-0.14 -0.62 0.4 -0.5 56.9 14.2 57.12 14.28Z" fill="#a9a9a9" stroke-width="1"></path>
      <path d="M196.2 269.14c0 0.4 0 0.9 -0.12 1.4a2.18 2.18 0 0 1 -2.2 1.62 2.92 2.92 0 0 1 -2.66 -4.56 2.68 2.68 0 0 1 3.58 -0.62c1.2 0.88 1.34 0.68 1.4 2.16Z" fill="#ffc6a6" stroke-width="1"></path>
      <path d="M194.44 256.78a1.14 1.14 0 0 1 0.32 0.3 1.28 1.28 0 0 1 -0.32 0.22c-22.92 8.12 -16.88 4.66 -30.26 8 -0.82 0.2 -10 2 -10 2a1.46 1.46 0 0 1 -0.88 -0.38 22 22 0 0 1 -5.08 -6.82 47.22 47.22 0 0 1 -3.4 -6c-0.32 -0.84 -0.18 -1.18 0 -1.52 0.8 -1.14 4 -4.46 3.5 -7.12a0.86 0.86 0 0 1 0 -0.38c2.38 0.48 45.96 11.64 46.12 11.7Z" fill="#fff5db" stroke-width="1"></path>
      <path d="M186.76 192.82c0.54 0 0.66 0.22 0.52 0.8s-0.28 1.68 -0.44 2.52a0.92 0.92 0 0 1 -0.34 0.56c-48.8 28.24 -46.82 28.28 -47.24 27.2 -4.18 -10.96 -5.28 -11.26 -8 -17.08 0 0 -4.12 -9.32 -3.2 -9.84 19.36 -10.96 16.48 -9.4 17.14 -9.64 1.16 0.16 39.26 5.2 41.56 5.48Z" fill="#fff5db" stroke-width="1"></path>
      <path d="M152.44 54c2 0.52 1.58 1.32 1.5 1.64s-0.28 0.26 -0.68 0.16c-10.68 -2.98 -56.76 10.24 -87.78 27.38 -0.62 0.36 -0.92 0.46 -1.04 0.26 -0.7 -1.36 34.4 -20.66 67.56 -28 8.9 -2.04 16.24 -2.46 20.44 -1.44Z" fill="#ff8e92" stroke-width="1"></path>
      <path d="M152.58 57.64c0.52 0.26 0.62 0.6 0.22 1.06C146.5 65.46 130 72 126 73.78c-0.3 0.14 -0.34 0 -0.42 -0.14 -0.36 -0.8 -0.74 -1.6 -1.06 -2.42a0.86 0.86 0 0 1 0.2 -0.7 6.96 6.96 0 0 0 2 -4.14 4.84 4.84 0 0 0 -1.1 -4.2c-0.4 -0.44 -0.38 -0.54 0.22 -0.68 3.64 -0.92 22.7 -5.94 26.74 -3.86Z" fill="#606060" stroke-width="1"></path>
      <path d="M122.9 72.88a91.88 91.88 0 0 1 8 42.3c0 0.74 -0.1 0.76 -0.8 0.44 -2.44 -1.14 -3.58 -1 -8 -1.26l-0.32 0a1.52 1.52 0 0 1 0.18 -0.36 8 8 0 0 0 3 -6.34 4.72 4.72 0 0 0 -6.62 -4.66c-2.44 0.92 -3.08 1.44 -4.36 1.3a0.82 0.82 0 0 1 -0.52 -0.4 8.58 8.58 0 0 1 -0.26 -1.2 0.84 0.84 0 0 0 -0.78 -0.8c-1.48 0 -1.66 3.56 0.96 4.42a4.64 4.64 0 0 0 3.2 -0.32 13.52 13.52 0 0 1 3.42 -1.2c1.68 -0.28 2.88 1.56 2.78 2.96a6.38 6.38 0 0 1 -5.26 6 74.16 74.16 0 0 0 -12.44 3.42A14 14 0 0 0 97.4 123c-0.84 1.28 -2.2 3.82 -4.64 2 -3.64 -2.62 -3.6 -1 -6.76 -4.1a2.46 2.46 0 0 0 -3.76 0c-2 2 -3.68 4.22 -2.14 6.66 5.62 8.98 14.78 19.34 25.1 21.16 0.46 0 0.54 0.28 0.44 0.6a50.58 50.58 0 0 0 -1.12 7.24c-0.18 1.68 -1.64 -3.82 -15.84 -8a35.12 35.12 0 0 0 -12.14 -2.16c-0.34 0 -0.48 0 -0.4 -0.44 0.72 -4.82 2.6 -14.46 0.2 -18.68A1.76 1.76 0 0 1 76 126a1.12 1.12 0 0 0 -2 -0.96c-4 4 -4.32 3.76 -5.72 3.66a17.22 17.22 0 0 1 -3.36 -0.7c-0.1 0 -0.16 -0.14 -0.24 -0.22s-0.1 -0.16 1.84 -0.38a0.94 0.94 0 0 0 0 -1.88 4.8 4.8 0 0 0 -3.42 0.72 0.66 0.66 0 0 1 -0.98 -0.12 12.7 12.7 0 0 1 -3.4 -7.14c-0.28 -3.28 0.28 -6.22 3.16 -7.82a6.24 6.24 0 0 1 2.24 -0.62c3.04 -0.38 3.06 0.82 5.02 1.1a1.4 1.4 0 0 0 1.06 -0.34c0.86 -0.82 -2.38 -3.26 -5.88 -3.02 -0.36 0 -0.38 0 -0.54 -0.32a42.22 42.22 0 0 1 -3.48 -7.4 27.66 27.66 0 0 1 -1.44 -9.62c0 -0.36 0.4 -0.7 0.68 -1A19.6 19.6 0 0 1 64 86.4c11.62 -7.58 30.18 -14.18 31.8 -14.96 0.38 -0.18 0.64 -0.18 0.66 0.38a4.7 4.7 0 0 0 7.42 3.66 0.76 0.76 0 0 1 1.08 0 2.6 2.6 0 0 0 3.32 0.52c0.24 -0.14 0.5 -0.22 0.76 -0.34a0.48 0.48 0 0 1 0.7 0.18 3.5 3.5 0 0 0 4 1.6 4 4 0 0 0 3.64 -4.2c0 -0.32 0 -0.46 0.44 -0.36a6 6 0 0 0 4 -0.48c0.7 -0.22 0.8 -0.16 1.08 0.48ZM124.68 84a1.74 1.74 0 0 0 0 -1.54 5.62 5.62 0 0 0 -4.88 -3.16 10.12 10.12 0 0 0 -2 0.64 3.48 3.48 0 0 0 -1.76 2.8c0 0.58 0 0.7 0.66 0.82s0.78 -0.2 1.02 -0.6a2.4 2.4 0 0 1 2.48 -1.44c1.32 0.14 2.12 1.16 2.78 2.42a1 1 0 0 0 1.7 0.06Zm-3.44 13.4c-0.42 -1.58 -0.32 -2 -1.76 -2.14 -0.64 0 -0.72 0.48 -0.9 0.92 -0.4 1.04 0 2.54 1.06 2.66s1.48 -0.44 1.6 -1.54Zm-13.62 -14.94c-3.6 -4 -11.88 -1.46 -12.2 4.26 0.16 0.46 0.3 0.96 0.46 1.42 0 0 0.22 0.26 0.28 0.24a2.24 2.24 0 0 0 0.86 -0.32 0.94 0.94 0 0 0 0.22 -0.62A4.26 4.26 0 0 1 98.96 84a5.5 5.5 0 0 1 7.14 -0.2c0.4 0.28 0.88 0.44 1.24 0.14s0.66 -1.18 0.28 -1.58Zm-2.14 19.5a3.32 3.32 0 0 0 -0.74 -3.3 1.24 1.24 0 0 0 -1.74 0.22 3.68 3.68 0 0 0 -0.48 1.5 2.74 2.74 0 0 0 0.64 1.82 1.4 1.4 0 0 0 2.32 -0.34Zm-24.46 9.76a0.84 0.84 0 0 0 0.98 -0.92c0 -0.72 -0.38 -1.16 -1 -1.16a0.84 0.84 0 0 0 -0.96 0.78c-0.04 0.3 0.06 1.28 0.98 1.3Zm0 -4.66c1.1 0 1.08 -1.72 0.14 -1.68s-0.86 0.2 -0.84 0.74 0.28 0.96 0.7 0.94Zm-2.12 1A0.92 0.92 0 0 0 78 107a0.74 0.74 0 0 0 -0.84 0.78c0 0.46 0.44 1.18 0.78 1.2a0.98 0.98 0 0 0 0.96 -0.98Zm-0.1 -9.72c0 -0.38 -0.36 -0.68 -0.84 -0.66a0.75 0.75 0 1 0 0.24 1.48c0.54 -0.02 0.54 -0.48 0.6 -0.82Zm0 -4.7c0 -0.76 -0.3 -1.1 -1 -1.12s-0.72 0.12 -0.76 0.88 0.38 1.18 0.88 1.16a0.88 0.88 0 0 0 0.84 -0.92Zm0 9.66a0.94 0.94 0 0 0 -0.92 -1.1c-1.2 0 -1.26 1.86 0 2a0.86 0.86 0 0 0 0.8 -0.9Zm-0.38 9.4q0 -1.04 -0.9 -1.08a0.82 0.82 0 0 0 -0.94 0.66c-0.12 0.66 0.44 1.38 0.86 1.38a0.98 0.98 0 0 0 0.86 -0.96Zm-3.08 -29.62c-1.18 0 -1.4 2 0 2.24s1.38 -2.22 0 -2.24Zm0.96 6.64a1.1 1.1 0 0 0 -0.98 -1.2 0.86 0.86 0 0 0 -0.92 0.8c0 0.62 0.72 1.46 1.12 1.44s0.78 -0.28 0.78 -1.04ZM76 95.1a0.8 0.8 0 0 0 -0.84 -0.92c-0.54 0 -0.8 0.26 -0.8 0.82a1 1 0 0 0 0.8 1.02 0.82 0.82 0 0 0 0.84 -0.92Zm-1.72 10.56c0.56 0 0.94 -0.42 0.94 -1.08s-0.34 -1.18 -0.94 -1.14 -0.88 0.42 -0.86 1.14a1 1 0 0 0 0.84 1.08Zm0 -5c0.6 0 0.9 -0.3 0.88 -0.86 0 -1.18 -1.8 -1.2 -1.82 -0.12 0 0.72 0.36 1 0.96 0.98Zm0.26 9.5c0 -1.48 -1.62 -1.44 -1.74 -0.5a1.08 1.08 0 0 0 0.96 1.26 0.7 0.7 0 0 0 0.8 -0.76Zm-2.68 -18a1.14 1.14 0 0 0 -1.16 -1.24c-1.24 0 -1.26 2 0.12 2.28a1.06 1.06 0 0 0 1.06 -1.1Zm-0.32 -5.88c0 -0.5 -0.32 -0.8 -0.92 -0.84s-0.76 0.18 -0.78 0.78 0.24 1 0.82 1.02 0.86 -0.28 0.9 -1.02Zm-0.32 39.24c1.2 -0.3 1.12 -2 -0.24 -1.84 -2.24 0.3 -2.22 -0.88 -1.56 -1.68 1.84 -2.2 1.44 -4 0.52 -5.06a9.24 9.24 0 0 0 -5.06 -3.28c-2.28 -0.48 -4.32 1.36 -3.1 4.68 0.24 0.82 1.68 1.04 1.7 -0.22s-0.5 -2.5 0.66 -2.48c1.58 0 5.28 2.74 4.44 4.2 -0.68 1.12 -2 2 -1.5 3.72s1.44 2.56 4.16 1.9Zm-0.9 -27.14a1.08 1.08 0 0 0 1.08 -0.96c0 -0.92 -0.36 -1.34 -1.04 -1.32 -1.18 -0.1 -1.26 2.22 -0.02 2.22Zm0.5 3.44c0 -0.62 -0.28 -0.88 -0.86 -0.86s-0.94 0.34 -0.92 0.94a0.903 0.903 0 1 0 1.8 -0.14Zm-0.82 5.76c0.64 0 0.84 -0.22 0.82 -0.88s-0.36 -1.02 -1 -0.98 -0.8 0.38 -0.8 0.98 0.24 0.9 0.98 0.88Zm-2.56 -18.84c0 -0.76 -0.26 -1.12 -0.94 -1.16a0.82 0.82 0 0 0 -0.98 0.64c-0.14 0.6 0.48 1.5 0.88 1.5a1.04 1.04 0 0 0 0.96 -0.98Zm-0.2 10.82c0.2 -1.32 -1.82 -2 -1.88 -0.52a1.34 1.34 0 0 0 0.88 1.32 0.92 0.92 0 0 0 0.92 -0.8ZM66 95a1.02 1.02 0 0 0 1.06 -1.08c0 -1.28 -2 -1.42 -2.1 -0.28A1.26 1.26 0 0 0 66 95Zm-0.52 9.78c0.54 0 0.96 -0.28 0.88 -0.76s-0.24 -0.88 -0.84 -0.92 -0.68 0.24 -0.68 0.8 0.28 0.9 0.64 0.88Zm-2.82 -4.42c-0.58 0 -0.56 0.34 -0.52 0.68s0.26 0.98 0.68 0.96a0.84 0.84 0 0 0 -0.16 -1.64Zm0 -9.02c0 -0.78 -0.24 -1.12 -0.86 -1.12a1.02 1.02 0 0 0 -0.16 2c0.84 0 1.02 -0.22 1.04 -0.88Zm-1.28 5.9a0.78 0.78 0 0 0 0.8 -0.84c0 -0.48 -0.38 -0.96 -0.74 -0.94s-0.72 0.38 -0.72 0.92 0.26 0.86 0.68 0.86Z" fill="#ffc6a6" stroke-width="1"></path>
      <path d="M130.3 118.1a0.6 0.6 0 0 1 0.14 0.5c-0.58 7.88 -4.28 19.18 -10.68 24.42 -12.98 10.62 -29.14 -2 -38 -16.68a1.34 1.34 0 0 1 0 -1.46c0.66 -0.94 1.42 -1.82 2.16 -2.7 0.22 -0.28 0.48 0 0.68 0.12 2.88 2.66 3.68 2.24 6.96 4.14a5.74 5.74 0 0 0 4.5 0.68c1.6 -0.42 1.86 -1.42 4.66 -5.08 1.28 -1.68 3.08 -2.3 7.42 -3.8a36.66 36.66 0 0 1 8.38 -2 33.84 33.84 0 0 1 12.42 1.16 6.56 6.56 0 0 1 1.36 0.7Zm-7.68 4.64c-1.78 -2.48 -4.4 -1.26 -5.88 -2.62 -0.58 -0.52 -1.04 -0.36 -1.62 0.18a2.94 2.94 0 0 1 -1.18 0.76c-3.1 0.76 -4.54 0.16 -6.46 2 -3.88 4 -4.84 8 -4.28 10.86 0.76 3.8 2.8 6.72 8.8 7.16 2.82 -0.34 4.72 -0.26 6.42 -2.22a10.18 10.18 0 0 0 4 -5.64c0.56 -3.22 2.06 -7.86 0.2 -10.48Z" fill="#ffd152" stroke-width="1"></path>
      <path d="M122.76 62.52a3.04 3.04 0 0 1 2.16 3.24c-0.52 4 -3.2 6 -8.76 4.74 -1.2 -0.26 -1.26 0.9 -0.96 1.84a2.14 2.14 0 0 1 -2 3.14c-1.52 0.28 -2 -0.7 -2.38 -1.42s-0.96 -1.14 -1.48 -0.68c-2.28 2 -4.14 0.78 -4.56 -0.86 -0.12 -0.42 -0.64 -0.2 -0.98 0.16a4.58 4.58 0 0 1 -2.58 1.36c-2.92 0.54 -3.3 -3.06 -3.12 -3.4s0 -0.32 1.08 -0.72c1.54 -0.52 22.12 -7.82 23.58 -7.4Z" fill="#ffd152" stroke-width="1"></path>
      <path d="M116.36 122.18c1.14 0.6 6.96 0 5.26 6.16 -0.38 1.38 -0.62 2.78 -0.9 4.18 -0.62 3.02 -2.54 3.68 -3.56 4.94 -1.36 1.7 -3.22 1.6 -5.76 1.86 -3.3 -0.66 -5.8 -1.84 -6.44 -5.18a10.38 10.38 0 0 1 3.8 -9.7c2.3 -2.16 4.14 -0.34 7.08 -2.16a0.68 0.68 0 0 1 0.52 -0.1Zm0.14 11.6a6.64 6.64 0 0 0 0.7 -8.18 3.46 3.46 0 0 0 -5.3 0.24 6.72 6.72 0 0 0 -0.82 8 3.4 3.4 0 0 0 5.42 -0.06Z" fill="#ffc6a6" stroke-width="1"></path>
      <path d="M117.3 55.88c0.5 1.5 -0.14 1.72 -0.64 1.9a256 256 0 0 0 -34.26 13.5c-0.48 0.22 -0.68 0.18 -1 -0.2a23.58 23.58 0 0 1 -6.18 -14.4 15.76 15.76 0 0 1 12.22 -15.84 38.98 38.98 0 0 1 11.74 -2c9.32 0.22 15.16 8.3 18.12 17.04Zm-10 -9.52c1 -0.16 1.1 -2.92 -2.6 -0.22 -0.3 0.22 -0.34 0.34 -0.76 0 -6.2 -5.26 -19.42 -0.22 -20 7.38a3.46 3.46 0 0 1 -0.86 2.12 12.74 12.74 0 0 0 -2.26 4.54c-0.26 1.18 0.66 1.54 1.06 0.36a12.72 12.72 0 0 1 1.9 -3.56c0.38 -0.48 0.46 -0.48 0.72 0 2.94 6.32 16.1 5 20.42 -2.26a6.8 6.8 0 0 0 0.56 -6.64 0.48 0.48 0 0 1 0.12 -0.66 4.16 4.16 0 0 1 1.64 -1.06Z" fill="#9edeff" stroke-width="1"></path>
      <path d="M79.88 72c0.32 0.34 0 0.4 -0.2 0.54 -6.8 3.62 -16.2 8.46 -22.2 14.24 -0.62 0.62 -0.64 0.62 -1.1 0 -5.72 -8.92 -4.9 -18.82 0.98 -27.42 6.28 -9.16 18 -14.86 20.6 -15.26a18.4 18.4 0 0 0 -4.24 8.82A23.4 23.4 0 0 0 79.88 72Z" fill="#ff8e92" stroke-width="1"></path>
      <path d="M39.62 190A55.66 55.66 0 0 1 52 165.2c9.82 -10.78 17.62 -10 20 -9.72 0 0 10.42 0.96 12.46 2s13.56 4.2 15.22 5.04S110 168 113 171.44s10.3 13.66 11.74 20a133 133 0 0 0 6.72 18.46s3.72 7.74 5.52 10.38 2.9 8 3.88 12a104.76 104.76 0 0 0 6.42 14s-9.32 2.8 -10.62 4.12 -13.64 9.2 -17.6 13.7 -10.86 10.8 -10.86 10.8a19.4 19.4 0 0 1 5.62 6.84c2 4.28 10.88 16 16 19.32s15.6 8.3 25.48 2.24l27.22 6.7a100.84 100.84 0 0 1 -4.72 14.7c-2 3.82 -11.12 21.2 -18 26.7 -4.86 3.86 -1.52 13.68 -14.94 13.5 -4.76 0 -11.08 1.7 -21.76 0 -4.58 -0.54 -13.18 0.34 -15.28 -0.92 -2.7 -0.3 0.46 -12.76 0 -17.18 -0.68 -6.62 -5.62 -32.76 -7.4 -40.18s-13.14 -46.68 -15.6 -51.4S69.1 220.1 59.9 206.96 39.62 190 39.62 190Z" fill="#d4f2e2" stroke-width="1"></path>
      <path d="m280.58 336 2.5 34c10.52 0.4 12.98 -1.82 19.74 0.52a48.34 48.34 0 0 0 6.58 -0.26l1.18 -35.66 -7.36 7.62Z" fill="#fff5db" stroke-width="1"></path>
      <path d="M375.22 366.9a62.74 62.74 0 0 0 8.68 0c0.54 -0.4 4.62 -0.52 4.88 -2s0.26 -129.52 0.26 -129.52c-4.8 4.62 -4.92 4.9 -19.34 23.56Z" fill="#fff5db" stroke-width="1"></path>
      <path d="M22.6 363.62S11.76 311.84 10.84 268s8.2 -68.96 15.7 -75.12 17.3 -2.5 23.22 2.5 17.3 16.62 28.68 44.84 25.3 74.38 32.78 123.78a130 130 0 0 1 -16.72 1.08c-8.68 -0.6 -25.64 -0.36 -41.64 0 -11.9 0.24 -21.84 0.36 -30.26 -1.46Z" fill="#fff5db" stroke-width="1"></path>
      <path d="m218 258.72 4.7 -3.66s4.96 4.8 4.7 8.56l-4.96 3.74a23.64 23.64 0 0 0 -4.44 -8.64Z" fill="#c6c6c6" stroke-width="1"></path>
      <path d="M389.18 217.44a4.3 4.3 0 0 0 -1.08 -0.28l-47.14 -6.14c-0.72 -0.12 -0.72 -0.18 -0.6 -0.86 0.48 -2.78 2.9 -16.56 3.58 -20.68 0.1 -0.54 0.32 -0.7 0.76 -0.72l26.5 -1.28c1.18 0 1.4 -0.38 1.28 -1.54 0 -0.66 -0.94 -24.5 -1.04 -27 0 -1.14 0.14 -1.72 -1.02 -1.78 -2.26 -0.14 -14.42 0.62 -20.24 0.84 -0.78 0 -0.82 0 -0.68 -0.86 0.5 -2.18 8.5 -49.14 9.1 -52.7 0.44 -2.6 0.96 -4.16 -1.62 -4.42 -0.92 -0.12 -37.52 -4 -38.48 -4 -0.28 0 -0.36 -0.12 -0.24 -0.46 4.46 -12.28 10.12 -13.76 8.68 -15.2 -0.36 -0.36 -0.92 -0.26 -1.52 0.32a36.28 36.28 0 0 0 -8.66 14.52c-0.12 0.46 -0.3 0.74 -0.94 0.6 -3.26 -0.62 -3.44 0 -3.16 -1.02 2.44 -8.5 6.64 -15.14 14.2 -19.74 0.76 -0.48 0.58 -1.9 -0.66 -1.54 -3.18 0.88 -11.24 7.74 -15.16 21.38 0 0.26 -0.16 0.34 -0.4 0.32 -41.44 -4.22 -25.4 -2.62 -33.84 -3.62 -0.74 0 -0.74 0 -0.9 -0.82 -2.36 -10.84 -6.48 -18.44 -8 -17.26s3.38 2.96 6.2 17.04c0.1 0.58 0 0.7 -0.56 0.66s-1.56 -0.12 -2.34 -0.22a0.52 0.52 0 0 1 -0.34 -0.3 2.74 2.74 0 0 1 -0.16 -0.7c-0.9 -6 -3.76 -14.58 -8.64 -17.82 -0.64 -0.42 -1.34 0.32 -0.84 1.02s5.78 4.7 7.76 17.08c0 0.34 0 0.5 -0.46 0.46 -2 -0.22 -61.06 -6.48 -62.22 -6.56a1.08 1.08 0 0 0 -0.74 0.22 4.96 4.96 0 0 0 -0.82 1.62c-0.34 1.88 -16.72 102.94 -16.94 104.34 0 0.72 -0.24 0.78 -0.96 0.68s-38.84 -5.02 -40 -5.26a5.28 5.28 0 0 0 -4 0.54c-2.24 1.24 -12.24 6.96 -15 8.54 -0.9 0.52 -0.9 0.54 -1.26 -0.42a66.78 66.78 0 0 0 -5.68 -13.28c-5.56 -8.88 -5.14 -7.7 -11.72 -14.42a0.94 0.94 0 0 1 -0.32 -1.16c0.64 -1.38 -1.78 -5.34 -2.16 -6.12 -1.02 -0.76 -0.62 -1.8 -0.54 -2.78 0 -0.64 -0.16 0.96 0.92 -6.58 0.12 -0.92 0.18 -0.94 1.12 -0.9a18.78 18.78 0 0 0 10.84 -2.78c10.14 -6.28 13.34 -20.56 14 -32.48a101.48 101.48 0 0 0 -6.36 -37.46 0.86 0.86 0 0 1 0.46 -1.06c6.44 -2.84 26.76 -11.48 28.52 -18.26 1.88 -7.28 -12 -5.66 -19.46 -4.3s-12.82 3.02 -16.16 4c-0.66 0.18 -0.76 0.14 -0.94 -0.5 -4.32 -14.96 -12.8 -20 -22.18 -19.38 -4.46 0.28 -5.14 1.18 -8.48 1.62a47.3 47.3 0 0 0 -12.3 4c-6.92 3.14 -13.06 6.58 -18.46 13.22C48 67.56 49.12 81.22 56.64 90a0.96 0.96 0 0 1 0.24 0.44A22.7 22.7 0 0 0 58 99.72a36.64 36.64 0 0 0 3.8 8.76c0.14 0.16 0.34 0.38 -0.14 0.56 -4.98 1.86 -7.34 10.4 -0.88 18.66a1.34 1.34 0 0 1 0.22 1.36 5.34 5.34 0 0 0 8.14 6 5.38 5.38 0 0 0 2.18 -4.14 1.02 1.02 0 0 1 0.26 -0.7c0.88 -0.64 1.8 -1.2 2.68 -1.82 0.4 -0.3 0.6 -0.16 0.7 0.26 1.5 6.38 0.1 10.9 -0.78 17.34 0 0.52 -0.2 0.76 -0.76 0.86a10.42 10.42 0 0 0 -7.88 6.58c-0.18 0.6 0 1.38 -0.48 1.78s-1.18 0.46 -1.78 0.68c-7.02 2.68 -20.46 15.18 -24.12 32.26 -0.12 0.5 -0.28 0.62 -0.82 0.54a14.5 14.5 0 0 0 -11.42 3.3c-19.02 15.48 -17.7 72.3 -16 96.72 2 29.12 8.78 65 10.16 68.88 0.18 0.52 1.24 0.7 1.46 -0.36s-7.02 -30.54 -9.74 -70.72c-2.26 -33.78 0 -49.76 3.22 -67.22 2 -11.48 5.26 -17.38 9.64 -22.2a5.32 5.32 0 0 1 6.96 -1.56c16.22 8 35.68 66.88 41.04 84.12 11.06 35.54 18.96 74 19.58 75.48 0.48 1.08 2 0.62 2 -0.34 -0.52 -4 -8.98 -40.82 -18.28 -71.5 -6 -19.68 -24 -75.88 -41.02 -88.22a10.16 10.16 0 0 0 -6.18 -2.32l0.3 -0.24a11.56 11.56 0 0 1 7.4 -1.58c16.32 2 31.66 31.72 38.44 46.66 16.36 36 25.08 72.98 31.9 112.16a1.04 1.04 0 0 0 2 0c0.3 -2.62 -11.16 -67 -30.2 -109.26 -7.14 -15.86 -21.36 -45.02 -38 -50.84 -0.88 -0.32 -1 -0.44 -0.76 -1.3a50.38 50.38 0 0 1 17.5 -26.84 35.68 35.68 0 0 1 5.2 -3.56c3.38 -1.78 13.86 -0.98 15.3 -0.78a58.38 58.38 0 0 1 14.24 4.16c4.62 2.52 13.82 1.1 26.14 21.28 4.96 8.14 6.54 18.38 10.38 26 9.48 18.66 6.6 14.3 11.46 27.72 0.92 2.52 3.32 6.56 4.36 8.74 0 0 0 0.26 -0.12 0.26 -3.22 0.18 -17.02 8.98 -19.64 10.86 -3.06 2.22 -16.18 15.6 -16.82 16.34a45.62 45.62 0 0 1 -5.54 5.46c-0.24 0.2 -0.32 0.22 -0.54 0 -3.8 -4.22 -6.92 -13.26 -8.26 -15.88 -9.18 -18 -4.9 -13.24 -9.7 -29.78 -1.28 -4.38 -2 -5.1 -5.4 -17.64a87.62 87.62 0 0 1 -1.28 -27.74c0.36 -1.58 -1.48 -1.86 -1.72 0a78 78 0 0 0 2.22 32.64c1.6 5.08 4 11.88 5.44 17.88 0.76 3.12 1.84 9.52 2.6 12a76 76 0 0 0 6.2 14s4.74 11.7 7.56 15.04 4 2.28 9.2 -0.72a0.56 0.56 0 0 1 0.5 0c9.26 14 18 30.12 36.14 29.02a22.96 22.96 0 0 0 8.12 -2.24 1.46 1.46 0 0 1 1.16 0c1.44 0.44 109.28 28.64 110.94 29.02a2.66 2.66 0 0 1 2.3 2.42c3.38 15.02 1.84 28.32 2.7 31.08 0.46 1.42 1.7 1.3 1.66 -0.24 -0.28 -12.22 -0.24 -22.94 -2.7 -31.58 -0.18 -0.6 -0.14 -0.62 0.5 -0.46 6.54 1.6 6.12 1.64 8.2 2.12a0.62 0.62 0 0 1 0.56 0.64c0 0.22 2.32 31.3 2.52 32.98s1.9 1.36 1.76 -0.4c-0.18 -2.28 -2.48 -30.4 -2.6 -32 0 -0.44 0.12 -0.64 0.6 -0.48l19.68 5.08c0.52 0.12 0.78 0.34 0.72 0.9 -0.16 1.58 -0.42 26.72 -0.42 26.92 0 0.64 0.34 1.26 0.76 1.28s0.92 -0.44 0.96 -1.14 0.38 -21.82 0.36 -25.46a2.64 2.64 0 0 1 0.8 -2.12c0.22 -0.2 2 -2.48 4.36 -5.56 0.38 -0.52 0.46 -0.24 0.44 0.16 0 1.66 -1.08 32 -1.04 32.98 0 0.36 0.14 0.76 0.66 0.78s0.9 -0.16 1.02 -0.74 1.14 -34.9 1.16 -35.16a2.28 2.28 0 0 1 0.56 -1.6c3.32 -4.18 56.58 -72.52 57.04 -72.82 0.12 0.44 5.08 105.02 5.3 106.44a0.843 0.843 0 1 0 1.68 -0.14c0 -1.28 -5.38 -106.7 -5.46 -108 0 -0.7 -0.14 0 11.76 -15.58 0.42 -0.54 0.44 0 0.44 0.12 0 7.86 0.2 123.02 0.32 123.84a0.86 0.86 0 0 0 1.72 0c0 -0.36 -0.34 -119.42 -0.46 -124.38a4.64 4.64 0 0 1 1.1 -3.62c0.9 -0.94 1.54 -2 2.4 -3.08 0.3 -0.36 0.48 0 0.46 0.14 0 0.44 -0.68 128.78 -0.44 129.64a0.86 0.86 0 0 0 1.68 -0.12c0 -0.7 0.44 -143.14 0.46 -148a1.06 1.06 0 0 0 -0.82 -1Zm-269.42 -74.42c-12.98 10.62 -29.14 -2 -38 -16.68a1.34 1.34 0 0 1 0 -1.46c0.66 -0.94 1.42 -1.82 2.16 -2.7 0.22 -0.28 0.48 0 0.68 0.12 2.88 2.66 3.68 2.24 6.96 4.14a5.74 5.74 0 0 0 4.5 0.68c1.6 -0.42 1.86 -1.42 4.66 -5.08 1.28 -1.68 3.08 -2.3 7.42 -3.8a36.66 36.66 0 0 1 8.38 -2 33.84 33.84 0 0 1 12.42 1.16 6.56 6.56 0 0 1 1.42 0.78 0.6 0.6 0 0 1 0.14 0.5c-0.64 7.8 -4.34 19.1 -10.74 24.34ZM152.8 58.7C146.52 65.46 130 72 126 73.78c-0.3 0.14 -0.34 0 -0.42 -0.14 -0.36 -0.8 -0.74 -1.6 -1.06 -2.42a0.8 0.8 0 0 1 0.2 -0.7 6.96 6.96 0 0 0 2 -4.14 4.84 4.84 0 0 0 -1.1 -4.2c-0.4 -0.44 -0.38 -0.54 0.22 -0.68 3.56 -0.92 22.62 -6 26.66 -3.86 0.6 0.36 0.7 0.6 0.3 1.06Zm-37.6 13.64a2.14 2.14 0 0 1 -2 3.14c-1.52 0.28 -2 -0.7 -2.38 -1.42s-0.98 -1.14 -1.48 -0.68c-2.28 2 -4.14 0.78 -4.56 -0.86 -0.12 -0.42 -0.64 -0.2 -0.98 0.16a4.58 4.58 0 0 1 -2.58 1.36c-2.92 0.54 -3.3 -3.06 -3.12 -3.4s0 -0.32 1.08 -0.72c1.5 -0.54 22 -7.8 23.48 -7.4a3.06 3.06 0 0 1 2.16 3.24c-0.52 4 -3.2 6 -8.76 4.74 -1.1 -0.26 -1.16 0.9 -0.86 1.84ZM132 55.4c8.9 -2 16.24 -2.42 20.44 -1.34 2 0.52 1.58 1.32 1.5 1.64s-0.28 0.26 -0.68 0.16C142.58 52.88 96.5 66.1 65.48 83.24c-0.62 0.36 -0.92 0.46 -1.04 0.26 -0.7 -1.36 34.4 -20.66 67.56 -28.1ZM87.44 40.84a39.62 39.62 0 0 1 11.74 -2c9.32 0.28 15.16 8.36 18.12 17.1 0.5 1.5 -0.14 1.72 -0.64 1.9A256 256 0 0 0 82.4 71.28c-0.48 0.22 -0.68 0.18 -1 -0.2a23.58 23.58 0 0 1 -6.18 -14.4 15.78 15.78 0 0 1 12.22 -15.84Zm-30 46c-0.62 0.62 -0.64 0.62 -1.1 0 -5.72 -8.92 -4.9 -18.82 0.98 -27.42 6.28 -9.16 18 -14.86 20.6 -15.26a18.4 18.4 0 0 0 -4.24 8.82A23.4 23.4 0 0 0 79.88 72c0.32 0.34 0 0.4 -0.2 0.54 -6.8 3.64 -16.2 8.48 -22.2 14.26Zm11.76 44.8c-0.88 3.52 -6.96 2.94 -6.56 -1 0 -0.98 0.16 -1.26 0.5 -1.08 4.44 2.04 6.44 0.54 6.06 2.08Zm4.94 -6.58c-4 4.12 -4.32 3.76 -5.72 3.66a17.22 17.22 0 0 1 -3.5 -0.72c-0.1 0 -0.16 -0.14 -0.24 -0.22s-0.1 -0.16 1.84 -0.38a0.94 0.94 0 0 0 0 -1.88 4.8 4.8 0 0 0 -3.42 0.72 0.66 0.66 0 0 1 -0.98 -0.12 12.7 12.7 0 0 1 -3.4 -7.14c-0.28 -3.28 0.28 -6.22 3.16 -7.82a6.24 6.24 0 0 1 2.24 -0.62c3.04 -0.38 3.06 0.82 5.02 1.1a1.4 1.4 0 0 0 1.06 -0.34c0.86 -0.82 -2.38 -3.26 -5.88 -3.02 -0.36 0 -0.38 0 -0.54 -0.32a42.22 42.22 0 0 1 -3.48 -7.4 27.66 27.66 0 0 1 -1.44 -9.62c0 -0.36 0.4 -0.7 0.68 -1A19.6 19.6 0 0 1 64 86.4c11.8 -7.7 29.66 -14 31.8 -14.96 0.38 -0.18 0.64 -0.18 0.66 0.38a4.7 4.7 0 0 0 7.42 3.66 0.76 0.76 0 0 1 1.08 0 2.6 2.6 0 0 0 3.32 0.52c0.24 -0.14 0.5 -0.22 0.76 -0.34a0.48 0.48 0 0 1 0.7 0.18 3.5 3.5 0 0 0 4 1.6 4 4 0 0 0 3.64 -4.2c0 -0.32 0 -0.46 0.44 -0.36a6 6 0 0 0 4 -0.48c0.6 -0.3 0.7 -0.24 0.98 0.4a92 92 0 0 1 8 42.3c0 0.74 -0.1 0.76 -0.8 0.44 -2.44 -1.14 -3.58 -1 -8 -1.26l-0.32 0a1.52 1.52 0 0 1 0.18 -0.36 8 8 0 0 0 3 -6.34 4.72 4.72 0 0 0 -6.62 -4.66c-2.44 0.92 -3.08 1.44 -4.36 1.3a0.82 0.82 0 0 1 -0.52 -0.4 8.58 8.58 0 0 1 -0.26 -1.2 0.84 0.84 0 0 0 -0.78 -0.8c-1.48 0 -1.64 3.56 0.96 4.42a4.66 4.66 0 0 0 3.3 -0.24 13.52 13.52 0 0 1 3.42 -1.2c1.68 -0.28 2.88 1.56 2.78 2.96a6.38 6.38 0 0 1 -5.26 6 74.16 74.16 0 0 0 -12.44 3.42A14 14 0 0 0 97.4 123c-0.84 1.28 -2.2 3.82 -4.64 2 -3.64 -2.62 -3.6 -1 -6.76 -4.1a2.46 2.46 0 0 0 -3.76 0c-2 2 -3.68 4.22 -2.14 6.66 5.62 8.98 14.78 19.34 25.1 21.16 0.46 0 0.54 0.28 0.44 0.6a50.58 50.58 0 0 0 -1.12 7.24c0 0.3 -0.12 0.44 -0.42 0.16 -3.38 -3.18 -7.06 -5.66 -15.42 -8a35.12 35.12 0 0 0 -12.14 -2.16c-0.34 0 -0.48 0 -0.4 -0.44 0.72 -4.82 2.6 -14.46 0.2 -18.68A1.76 1.76 0 0 1 76 126a1.12 1.12 0 0 0 -1.86 -0.94ZM94 159.5a66.22 66.22 0 0 0 -11.78 -3.84 55.16 55.16 0 0 0 -15.04 -0.7c-0.44 0 -0.36 0 -0.24 -0.4a8.14 8.14 0 0 1 6.76 -5.76c0.9 -0.16 1.82 -0.26 2.72 -0.4 2.34 -0.36 7.7 1.14 10.14 1.76a41 41 0 0 1 15.12 7.1c4.7 4 4.86 6.6 5.1 7.54A90.4 90.4 0 0 0 94 159.5Zm274.88 26.12c-2.18 0 -30.76 1.48 -31.66 1.46s-0.56 0 -0.36 -0.6c0.34 -1.02 9.48 -11.88 10.34 -13.04 0.16 -0.22 0.22 -0.24 0.46 0l4.22 2.9a2 2 0 0 0 2.46 -0.22c1.02 -0.9 2 -1.84 3 -2.76 0.58 -0.54 0.6 -0.58 1.16 0l10.58 12c0.2 0.16 0.08 0.26 -0.2 0.26Zm-34 0.2s-0.14 -0.22 -0.14 -0.32c-0.22 -13.12 -0.94 -20.26 -0.8 -21.52a1.7 1.7 0 0 1 0.44 0.18l10.26 7.1c0.86 0.58 0.98 0.86 0.32 1.7 -9.98 12.78 -9.46 12.62 -10.04 12.86Zm34.92 -23.44c0 1.02 0.88 18.86 0.94 20.58 0 0.24 0.14 1.56 -0.74 0.54 -1.24 -1.44 -9.72 -10.8 -10.38 -11.5 -0.3 -0.3 0 -0.78 0.22 -1.04 10.82 -9.8 9.88 -9.38 10 -8.58Zm-0.78 -3.52c0.7 0 0.34 0.44 0.16 0.64 -1.56 1.62 -14.34 13.32 -15.66 14.56 -0.32 0.3 -0.56 0.68 -1.48 0 -1.68 -1.18 -15.74 -10.7 -18 -12.22a0.64 0.64 0 0 1 -0.38 -0.8 1.22 1.22 0 0 1 0.8 -0.58c4.2 -0.08 33.88 -1.56 34.6 -1.6Zm-51.74 -59.42c0.32 -1.16 0.24 -1.36 0.46 -1.54s0.62 0 1.02 0c2.1 0.26 36.8 4 38 4.16 0.38 0 0.42 0.18 0.34 0.54 -0.44 2.38 -9.18 53.04 -9.4 54.5 -0.12 0.92 -0.18 0.98 -1.12 1.1l-1.42 0c-0.46 0 -0.6 -0.22 -0.52 -0.62 0.22 -1.38 8.72 -50.6 8.92 -52s-0.24 -2 -1.84 -2.22c-3.12 -0.3 -33.58 -3.46 -34 -3.5s-0.54 -0.04 -0.44 -0.42ZM312 98.18c0.14 -0.92 0.14 -0.92 1.08 -0.9s1.72 0.22 2.6 0.26c0.4 0 0.46 0.18 0.4 0.48a10.22 10.22 0 0 1 -0.24 1.4 0.48 0.48 0 0 1 -0.42 0.28c-1.12 -0.1 -2.22 -0.24 -3.34 -0.4 0 0 -0.2 -0.2 -0.2 -0.32a5.52 5.52 0 0 1 0.12 -0.8ZM310 97c0.44 0 0.64 0.2 0.52 0.94 -0.2 1.14 -0.2 1.12 -1.36 1 -3.62 -0.34 -30.72 -3.2 -31.84 -3.24s-0.6 -0.22 -0.8 -2.26c27.66 2.74 32.04 3.44 33.36 3.56Zm-38.14 -4.16a15.54 15.54 0 0 1 2.9 0.46 7.64 7.64 0 0 1 0.14 2c0 0.36 -0.76 0 -3.1 -0.18 -0.34 0 -0.36 -0.22 -0.38 -0.48 -0.22 -1.84 -0.56 -1.82 0.32 -1.8ZM269.64 98c0 4.3 -0.4 5.86 -0.42 7.56 0 0.76 1.22 1.26 1.56 0.3a33.64 33.64 0 0 0 0.56 -8.32c0 -0.42 0.16 -0.6 0.52 -0.58 0.9 0 1.78 0.18 2.66 0.24 0.36 0 0.46 0.18 0.44 0.52a44.48 44.48 0 0 1 -0.34 4.9c-0.12 1.06 1.16 1.48 1.52 0.62a18.32 18.32 0 0 0 0.5 -5.16c0 -0.4 0 -0.66 0.6 -0.58 2.68 0.32 32 3.38 32.16 3.4s0.54 0.22 0.5 0.64a27.86 27.86 0 0 0 0.4 7.86 0.66 0.66 0 0 0 0.84 0.36c1.12 -0.46 -0.24 -2.78 0.26 -7.88 0 -0.78 0 -0.78 0.84 -0.7l2.54 0.26c0.42 0 0.62 0.2 0.62 0.72s0.14 5.2 0.26 5.42c0.38 0.58 1.02 0.52 1.1 0a22.92 22.92 0 0 0 0.22 -5.26c0 -0.52 0.24 -0.7 0.76 -0.64s33.28 3.56 33.5 3.56 0.66 0.26 0.56 0.74c-0.38 2 -8.62 49.06 -9.04 51.56 -0.12 0.74 0 0.72 -0.9 0.76 -7.46 0.38 -8.96 0.54 -9.32 1.16 -0.76 1.3 0.76 27.02 0.94 28.52 0.12 0.86 0.42 1.12 1.28 1.14 1.62 0 2.6 -0.52 2.44 0.42 -1.56 9.62 -4.66 26.94 -4.68 26.98 0 0.5 -0.32 0.54 -0.7 0.46l-137.06 -26.46c-0.78 -0.14 -0.82 -0.2 -0.7 -0.98 0.5 -3.02 16 -96.9 16.16 -98.3 0.14 -0.8 0.18 -0.8 0.92 -0.74l57.16 6c1.7 0.28 1.32 0.32 1.34 1.5Zm-80.88 97.34c0.6 -3.46 17.54 -108.16 17.68 -109 0 -0.48 0.32 -0.58 0.78 -0.52 3.04 0.38 59.54 6.44 61.06 6.66 1.12 0.18 1.1 0.18 1.16 1.42a3.34 3.34 0 0 0 0 0.38c0 0.44 -0.16 0.54 -0.54 0.52 -0.78 0 -57.36 -6 -58.92 -6.16 -0.98 0 -1.54 0.34 -1.42 1.3a14 14 0 0 1 -0.4 3.44c-0.24 2 -15.8 95.36 -16.12 97.24 -0.14 0.86 0 1.26 1 1.44s124.82 24.52 139.72 27.36c0.84 0.16 1.26 0 1.4 -0.94 0.86 -5.34 4.8 -27.52 4.9 -28.88 0 -0.48 0.24 -0.66 0.7 -0.66 1.7 0 2.48 -0.38 2.32 0.52 -0.36 2 -5.72 32.86 -6.12 35.28 0 0.44 -0.2 0.58 -0.66 0.5 -0.12 0 -144.18 -29 -146.18 -29.34 -0.34 -0.06 -0.42 -0.22 -0.36 -0.56Zm147.1 33.54a18 18 0 0 1 -0.32 2.22 3.88 3.88 0 0 1 -1.24 1.18c-2.32 1.8 -53.44 43.14 -53.6 43.28 -0.52 0.42 -0.28 -0.96 -0.28 -2.84 0 -0.48 0.38 -0.68 0.7 -0.94 58.14 -46.24 54.26 -42.96 54.42 -43.12s0.34 0.12 0.32 0.22ZM139.26 224c-4.18 -10.96 -5.28 -11.26 -8 -17.08 0 0 -4.12 -9.32 -3.2 -9.84 19.04 -10.76 16.48 -9.4 17.14 -9.64 1.18 0.16 39.28 5.2 41.58 5.48 0.54 0 0.66 0.22 0.52 0.8s-0.28 1.68 -0.44 2.52a0.92 0.92 0 0 1 -0.34 0.56c-48.82 28.14 -46.84 28.18 -47.26 27.2Zm4.42 12.58c-2.26 -5.34 0.24 1.62 -3.5 -9.78 -0.12 -0.42 0 -0.58 0.34 -0.8 3.32 -2 45 -26.78 46.98 -28 1.3 -0.82 -6.18 -1.34 146.48 29.02 0.16 0 0.64 0 0.12 0.46 -1.36 1.04 -52.68 41.7 -54 42.78a2.2 2.2 0 0 1 -2.2 0.46c-8.38 -2.22 -41.48 -10.28 -43.24 -10.98a2.9 2.9 0 0 1 0.44 -0.42s7.78 -4.58 10.18 -9.56a0.7 0.7 0 0 1 0.4 -0.36l5.6 -1.52c1.04 -0.28 1.88 0 3.82 0.78a0.78 0.78 0 0 1 0.48 0.42c0.4 1.22 0.32 3.24 0.68 5.54 0.2 1.3 1.22 1.9 2.3 2.4a4.28 4.28 0 0 0 0.68 0.18c1.82 0.42 3.18 -0.44 3.18 -3.14 0 -6 0 -4.38 0.38 -6.7a2.14 2.14 0 0 0 -0.28 -1.44 10.7 10.7 0 0 0 -1.18 -2.14c-0.16 -0.18 0 -0.66 0 -0.94s0.46 -0.14 0.72 0c3.64 0.92 31.46 7.84 32.86 8.16a2.6 2.6 0 0 0 2.58 -0.36c2 -1.5 23.62 -18.44 26 -20.38 1.26 -1 1.52 -2.2 -0.52 -2.6 -132.64 -27.2 -134 -27.66 -133.96 -27.66a2 2 0 0 0 -1.14 0.36c-2.88 1.66 -24.88 15.26 -24.92 15.28 -0.34 0.2 -0.76 0.34 -0.64 0.78s0.14 0.98 0.74 1.14l63.82 16c0.62 0.16 0.68 0.28 0.52 0.48 -5.74 7.02 -4.64 5.16 -9.36 10.38 -0.56 0.58 -0.5 0.54 -1.26 0.32a9.6 9.6 0 0 0 -4 -0.72 6 6 0 0 0 -2.38 0.88 18.7 18.7 0 0 0 -4.18 3.76 6.72 6.72 0 0 0 -1.32 2.74c-0.2 0.7 -0.28 0.72 -0.9 0.56 -63.04 -15.96 -60 -14.56 -60.32 -15.48Zm67.62 10a1.04 1.04 0 1 1 1.44 1.48c-0.88 0.74 -2.54 -0.6 -1.44 -1.66Zm-1.7 6.54a1.62 1.62 0 1 1 0 -3.22 1.62 1.62 0 1 1 0 3.22Zm6 1.62a1.54 1.54 0 0 1 -1.68 2.32 2.14 2.14 0 0 1 -2 -1.58c-0.24 -2.28 2.7 -2.74 3.7 -0.92Zm-0.96 -2.4c-1.6 -0.3 -2.36 -1.68 -1.84 -2.64a2 2 0 0 1 3.58 1.18 1.48 1.48 0 0 1 -1.72 1.28Zm0.82 -5.48c0.64 -0.96 2.62 0.32 1.46 0.94 -0.92 0.3 -1.92 -0.4 -1.44 -1.12Zm1.4 6.22a1.48 1.48 0 0 1 1.4 -0.96c1.54 0 2.78 2.4 1.06 3.12a1.88 1.88 0 0 1 -2.44 -2.34Zm2 -4.56c0.9 -0.16 2.2 0.56 1.9 1.68a1.58 1.58 0 0 1 -2.46 0.16 1.06 1.06 0 0 1 0.5 -2.02Zm3.08 8a0.48 0.48 0 0 1 0.66 -0.12c0.16 0.12 -0.22 -0.18 0.84 0.84a8.56 8.56 0 0 1 -2.76 2.6 0.96 0.96 0 0 1 -1.52 -0.58c-0.1 -0.6 0.12 -0.54 2.72 -2.92Zm-0.68 4.74c2.88 -1.46 2.96 -3.02 3.48 -2l0.48 0.82a7.28 7.28 0 0 1 -3.34 2.56c-0.58 0.24 -0.62 -0.36 -0.84 -0.66s-0.12 -0.76 0.16 -0.9Zm2.24 2.24c2.18 -1.02 2.3 -2.28 2.6 -1.48 0.16 0.44 0.36 0.86 0.58 1.36 -0.38 0.62 0.4 0 -3.14 2.64 -0.28 0.2 -0.56 0.16 -0.8 -0.32 -0.88 -1.96 -0.96 -1.7 0.7 -2.38Zm0.54 -8.38c-0.3 -0.24 -0.36 -0.4 -0.14 -0.74a3.52 3.52 0 0 0 -0.34 -4.8 13.02 13.02 0 0 0 -4.16 -3.2c-0.34 -0.18 -0.32 -0.3 -0.12 -0.5a100.6 100.6 0 0 0 11.1 -12.4c1.3 -1.56 1.06 -1.7 6.74 -4.48a6.14 6.14 0 0 1 3.46 -0.74 15.02 15.02 0 0 1 1.88 0.42s0 0.22 0 0.24c-1.5 0.92 -2.74 1.14 -5.38 2.86 -0.8 0.44 -0.22 1.78 1.12 1.28a6.72 6.72 0 0 0 1.36 -0.7c4.14 -2.64 6.66 -2 9.16 -2.86a3.66 3.66 0 0 1 3.54 2.38c0 0.46 -0.18 0.6 -0.58 0.7a59.2 59.2 0 0 0 -8.56 2.24c-0.96 0.38 -0.18 1.54 1.24 1.24 7.86 -1.62 7.66 -1.78 8.98 -2a5.1 5.1 0 0 1 3.6 0.84c2.42 1.6 2.14 2.9 2.62 6 0 0.2 0 0.82 -0.58 0.38A14.62 14.62 0 0 0 256 240c-0.2 -0.12 -0.26 -0.56 -0.38 -0.8s-0.3 -0.76 -0.48 -1.12a0.84 0.84 0 1 0 -1.5 0.72l0.26 0.74a13 13 0 0 0 -4.48 0c-0.88 0.32 0 1.04 0.9 1.16a34.22 34.22 0 0 1 6.92 1.52 10.38 10.38 0 0 1 3.74 4.36 1.34 1.34 0 0 1 0.14 0.96c-1.08 3.2 0.78 8.54 -1.6 7.72 -1.1 -0.38 -1.62 -0.84 -1.68 -2a10.96 10.96 0 0 0 -1.06 -5.66 0.8 0.8 0 0 0 -0.36 -0.32 9.4 9.4 0 0 0 -5.18 -1.24c-5.48 1.32 -6.16 1.14 -8.16 3.78 -4.78 6.3 -9.36 7.62 -14.88 11.68 -0.32 0.24 -0.36 0.1 -0.42 -0.18a14 14 0 0 0 -3.78 -6.38Zm27.58 -26.58a6 6 0 0 0 -5.3 -0.32c-0.28 0 -0.58 0 -0.12 -0.32q1.26 -0.98 2.52 -2a1.1 1.1 0 0 1 1.1 -0.2c12.86 3.16 13.88 2.94 13.1 3.54 -1.54 1.2 -4.34 3.24 -4.34 3.24a1.26 1.26 0 0 1 -1.38 0.26c-2.82 -0.84 -3.2 -0.46 -3.1 -1.16 0.14 -1.28 -1.12 -2.4 -2.54 -3.22Zm30.58 3.3c-0.28 0 -0.34 -0.2 0 -0.4l4.36 -3.38c0.64 -0.34 0.14 -0.12 13.72 2.7l0.36 0c-0.24 0.36 0 0 -3.84 3.14a3.5 3.5 0 0 1 -1.38 0.88Zm11.34 4.6 -4.6 3.56a3.82 3.82 0 0 1 -0.56 0.3c-14.2 -3.4 -12.52 -2.9 -13.16 -3.28 0.52 -0.48 3.52 -2.78 4.54 -3.66a1.42 1.42 0 0 1 1.34 -0.28c1.68 0.4 10.6 2.5 12.36 2.84 0.24 -0.06 0.3 0.08 0.02 0.34Zm-8.86 -8.66c-4.22 3.38 -4.24 3.4 -4.8 3.56 -3.36 -0.82 -12.28 -2.86 -12.74 -3.02l-0.3 -0.16 4.4 -3.3a1.28 1.28 0 0 1 1.16 -0.26l12.22 2.78c0.32 -0.1 0.18 0.08 0 0.22Zm-19.44 -0.22a0.94 0.94 0 0 1 -0.92 0.14c-13.28 -3.14 -14 -2.98 -13.32 -3.46 4.22 -3.2 4 -3.14 4.68 -3.3 0 0 6 1.4 13.84 3.02 0.12 0 0.2 0.14 0.32 0.22a43.26 43.26 0 0 1 -4.66 3.2Zm-12.12 -6.62c-4 3.08 -3.68 2.96 -4.34 3.14 -13.68 -3.2 -13.08 -2.92 -14.46 -3.48a26.6 26.6 0 0 1 3.5 -3.08 0.94 0.94 0 0 1 0.98 -0.22c15.44 3.34 15.2 2.7 14.26 3.46Zm-16.72 -3.84a20.24 20.24 0 0 1 -4 3.14l-12.68 -2.92c-0.38 0 -0.5 -0.26 -0.16 -0.52 1.16 -0.94 2.34 -1.88 3.52 -2.78a1 1 0 0 1 0.68 -0.12l12.94 2.88a1.14 1.14 0 0 1 -0.36 0.14Zm-19.24 -0.38c-0.32 0 -11.84 -2.7 -12.32 -2.86a2.74 2.74 0 0 1 -0.4 -0.26c0.32 -0.34 1.52 -1.24 3.16 -2.6a1.36 1.36 0 0 1 1.38 -0.32l12.34 2.8a36.66 36.66 0 0 1 -4.22 3.06Zm-14.38 -3.58a0.8 0.8 0 0 1 -0.84 0c-11.66 -2.74 -11.46 -2.4 -10.98 -2.86 3.5 -2.56 3.48 -2.58 4.12 -2.74L206 210c0.68 0 0 0.2 -3.28 2.96Zm-2.46 1.16 0.38 0.12c0.32 0 0.3 0.18 0 0.36 -1.06 0.82 -2 1.54 -3.74 3.02a1.5 1.5 0 0 1 -1.48 0.36c-2.66 -0.68 -11.24 -2.72 -11.34 -2.74s0.12 -0.24 0.22 -0.3c4.42 -3.3 4.48 -3.26 4.9 -3.36 1.76 0.24 -0.68 -0.26 11 2.36Zm2 0.98a5.4 5.4 0 0 1 0.62 -0.4c1.24 0.3 12.38 2.84 12.82 2.98 -0.34 0.62 0.54 -0.36 -4.38 3.62a0.96 0.96 0 0 1 -1.02 0.2c-3.74 -0.9 -12.12 -2.9 -12.28 -3s2.84 -2.68 4.1 -3.58Zm14.76 3.42a1.06 1.06 0 0 1 1.02 -0.26c13.48 3.2 13.32 2.74 12.6 3.42 -4.2 3.46 -4 3.4 -4.56 3.56L212.7 222c0.22 -0.46 0.18 -0.28 4.24 -3.48Zm11.48 6.64c3.88 -3.32 3.88 -3.28 4.38 -3.48l14 3.3c0.32 0 0.34 0.22 0.14 0.38 -0.8 0.64 -1.6 1.28 -2.44 1.84 -0.16 0.14 -0.54 0 -0.82 0 -3.08 -0.74 -4.14 -1.48 -7.06 -0.12a2.9 2.9 0 0 1 -2.16 0.22c-4 -1.06 -5.76 -1.26 -6.4 -1.64a1.74 1.74 0 0 1 0.22 -0.68Zm36.12 4.44c0.22 -0.16 0.46 -0.28 0.62 -0.38l12.32 2.84c0.14 0 0.8 0.2 0.8 0.34 0 0.46 0 0.26 -4.56 3.82a1.02 1.02 0 0 1 -1.04 0.18c-12.82 -3.08 -10.12 -2.26 -12.84 -3.22a35.54 35.54 0 0 1 4.56 -3.76Zm-4.3 5.3c0.38 0 10.18 2.4 11.32 2.74a4 4 0 0 1 -0.5 0.5c-4.74 3.64 -4.32 3.34 -4.88 3.58 -2.36 -0.54 -2.42 -0.62 -4.32 -1.06 -0.4 0 -0.56 -0.22 -0.6 -0.64a17.18 17.18 0 0 0 -1.2 -4.76l-0.22 -0.32a1.36 1.36 0 0 1 0.26 -0.22Zm8.18 7.04c5.18 -4 4.8 -3.72 5.26 -3.84 12.6 3.02 12.34 2.94 12.78 3.12s0.22 0.26 0 0.4l-2.66 2c-2.24 1.5 -2 2.12 -3.44 1.74l-11.86 -3.04a1.32 1.32 0 0 1 -0.38 -0.18Zm19.8 0a1.02 1.02 0 0 1 0.96 -0.12l12.56 3.04 -0.36 0.36a56.8 56.8 0 0 1 -5.46 4c-0.3 0 -12 -3.06 -12.62 -3.3 0.12 -0.56 -0.04 -0.36 4.78 -4.1Zm2 -1.38c0.56 -0.74 2.12 -1.64 4.4 -3.58a2.12 2.12 0 0 1 2.14 -0.46c2 0.5 9.68 2.26 11.52 2.7a1.36 1.36 0 0 1 0.42 0.2 1.28 1.28 0 0 1 -0.26 0.3 60.86 60.86 0 0 1 -5.26 4Zm7.08 -5.44a1.3 1.3 0 0 1 0.3 -0.36c1.46 -1.16 2.9 -2.3 4.38 -3.42a1.4 1.4 0 0 1 0.94 -0.16c2.54 0.54 10.76 2.4 12.36 2.76l0.36 0.16c-0.1 0 -3.32 2.6 -4.84 3.76a3.02 3.02 0 0 1 -0.56 0.3c-0.38 -0.2 -12.52 -2.96 -13.06 -3.2Zm6.78 -5.28a2.12 2.12 0 0 1 0.38 -0.46c3.3 -2.62 3.48 -2.78 4 -2.96l13.04 2.66c0.36 0 0.28 0.2 0 0.34 -4.82 3.6 -3.34 3.72 -6 3.12 -11.44 -2.72 -10.96 -2.46 -11.54 -2.86Zm2.28 -3.56c-4 3.02 -3.8 3.06 -4.42 3.24l-13.2 -2.92c-0.82 -0.18 0.54 -0.68 2.6 -2.6a2.86 2.86 0 0 1 2.94 -0.52c2.96 0.68 12 2.44 12 2.44s0.24 -0.1 -0.04 0.2Zm-15.88 -3.2c-3.58 2.72 -3.62 2.76 -4.16 2.96 -1.08 -0.2 -12 -2.58 -12 -2.58l-0.92 -0.36c1.16 -1.02 2.8 -2.28 3.56 -2.84a0.98 0.98 0 0 1 0.74 -0.18l12.98 2.7a1.22 1.22 0 0 1 -0.32 0.14ZM275.26 220c-0.58 0.44 -3.24 2.42 -4 2.74 0 0 -13.8 -2.98 -14 -3.06s-0.32 -0.18 0 -0.38 2 -1.56 2.16 -1.72c0.58 -0.9 -0.24 -1.4 -0.84 -0.96a21.54 21.54 0 0 0 -1.72 1.3 3.46 3.46 0 0 1 -3.54 0.92c-3.42 -0.92 -12.1 -2.72 -13.3 -2.94 -0.32 0 -0.32 -0.22 -0.12 -0.4 0.88 -0.76 1.76 -1.54 2.66 -2.28a1.18 1.18 0 0 1 0.86 -0.14c33.44 6.92 32.58 6.4 31.84 6.92Zm-34 -7.08c-0.98 0.78 -2 1.6 -2.94 2.36a1.1 1.1 0 0 1 -0.76 0c-2.92 -0.6 -11.12 -2.4 -12.3 -2.68l-0.42 -0.18a30.78 30.78 0 0 1 2.64 -2.36 1.06 1.06 0 0 1 0.74 -0.12c0.22 0 12 2.38 13.14 2.74a0.76 0.76 0 0 1 -0.14 0.26ZM222.6 212c-0.7 -0.12 -8.82 -1.88 -12 -2.6l-0.62 -0.28c0.42 -0.58 0.52 -0.4 1.72 -1.56a2 2 0 0 1 2.24 -0.54c3.38 0.76 11.3 2.34 11.88 2.48 0 0 0.14 0.2 0.14 0.22 -3.58 2.68 -3.04 2.28 -3.4 2.28Zm-12.14 -5.26a9.04 9.04 0 0 1 -2.8 2c-1 -0.2 -11.18 -2.4 -11.32 -2.48s1.82 -1.4 2.48 -1.88a1.68 1.68 0 0 1 1.48 -0.14c10.62 2.28 9.88 1.84 10.36 2.2a1.3 1.3 0 0 1 -0.24 0.32ZM197.02 204c-2.46 1.78 -2.42 1.82 -2.74 1.82 -0.84 -0.16 -7.84 -1.46 -8.6 -2a1.08 1.08 0 0 1 0.18 -0.24c2.62 -1.58 2.88 -1.78 3.5 -1.7 2.5 0.52 4.98 1.06 7.48 1.62l0.32 0.14a0.54 0.54 0 0 1 -0.14 0.36Zm-4.48 2.88c0.28 0 0.24 0.24 0 0.36 -3.26 2.34 -3.22 2.46 -4 2.72 -4 -0.8 -8.12 -1.88 -9.34 -2.12a1.5 1.5 0 0 1 0.24 -0.28c4 -2.5 4.12 -2.58 4.72 -2.5 2.88 0.56 5.64 1.2 8.38 1.8Zm-5.4 4.26a0.94 0.94 0 0 1 -0.18 0.24c-4.42 3.3 -4.22 3.16 -4.84 3.42 -10.82 -2.46 -10 -2.34 -10 -2.34 -0.78 -0.18 0.78 -0.74 5.04 -3.42a1.02 1.02 0 0 1 0.86 -0.12c9.68 2.32 8.84 2 9.12 2.2Zm-7.14 4.58c0.36 0 0.68 0.22 0.38 0.44 -4 2.86 -3.72 2.74 -4.24 2.86 -11.3 -2.8 -10.42 -2.56 -10.72 -2.8l4.18 -2.54c1.06 -0.68 1.26 -0.08 10.4 2.04Zm-1.54 3.48q1.84 -1.38 3.72 -2.7a1.46 1.46 0 0 1 0.5 -0.16c8 2 3.52 0.84 11.68 2.86 0.32 0 0.3 0.2 0 0.38l-3.36 2.7a1.02 1.02 0 0 1 -1.1 0.24l-11.38 -2.88c-0.24 -0.1 -0.26 -0.24 0.02 -0.44Zm14 3.62a29.8 29.8 0 0 1 4 -3.12l12.22 2.88c0.38 0 0.82 0.16 0.26 0.56s-1.06 0.8 -3.42 2.68a1.22 1.22 0 0 1 -1.2 0.32l-12 -3.08a1.66 1.66 0 0 1 0.2 -0.24Zm14.64 3.42a46.9 46.9 0 0 1 4 -2.98 5.14 5.14 0 0 1 2 0.38c14.28 3.18 12 2.6 11.3 3.14l-3.68 3.06a1.08 1.08 0 0 1 -1.06 0.18c-13.44 -3.46 -13.36 -3.08 -12.5 -3.78Zm15.32 3.86c1.18 -1.02 2.38 -2 3.58 -3a0.96 0.96 0 0 1 0.74 -0.18c2.12 0.46 4.24 0.98 6.34 1.5 0.42 0.1 0.4 0.34 0 0.46a13.12 13.12 0 0 0 -4.72 3.32l-5.8 -1.46c-0.46 -0.14 -0.56 -0.3 -0.08 -0.64Zm9.26 31.2a1.4 1.4 0 0 1 1.26 -0.18l45.42 11.4c0.36 0 0.46 0.22 0.42 0.54a17.02 17.02 0 0 1 -0.14 2.86c0 0.56 0 0.56 -0.68 0.4 -6.24 -1.62 -49.2 -12.56 -49.64 -12.82 0.56 -0.36 2.32 -1.5 3.42 -2.2Zm-86.14 -22c0.96 0.22 54.12 13.54 56.46 14.12 0.46 0 1.06 0.26 0.66 0.5l-0.36 0.2a22.84 22.84 0 0 1 -4.42 1.8S150.7 243.8 147.6 243.1a1.64 1.64 0 0 1 -1.26 -1.04c-0.64 -1.8 -2.02 -3.12 -0.74 -2.84Zm-0.72 13.38c0.78 -1.14 4 -4.46 3.5 -7.12a0.86 0.86 0 0 1 0 -0.38c2.24 0.46 45.82 11.62 46 11.68a1.14 1.14 0 0 1 0.32 0.3 1.28 1.28 0 0 1 -0.32 0.22c-22.92 8.12 -16.88 4.66 -30.26 8 -0.82 0.2 -10 2 -10 2a1.46 1.46 0 0 1 -0.88 -0.38 22 22 0 0 1 -5.08 -6.82 47.22 47.22 0 0 1 -3.4 -6c-0.2 -0.9 -0.06 -1.26 0.18 -1.58Zm0.76 52.12c-13.78 -0.28 -20.7 -8.66 -30 -22.38 -0.28 -0.44 -4 -6.18 -4.2 -6.7a1.64 1.64 0 0 0 -1 -1.2c-0.48 -0.16 -0.4 -0.34 -0.16 -0.62 20.4 -21.4 20.44 -17.62 29.58 -23.9 0.28 -0.2 0.42 -0.32 0.66 0 2 3.44 7.34 15 11.28 18.3a4.6 4.6 0 0 0 4 0.76 70.78 70.78 0 0 0 8.4 -1.88c12.36 -3.74 9.24 0.62 37.12 -10.58 1.22 -0.5 2.42 -1.1 3.62 -1.68s0.96 -0.48 1.68 0.26a29.44 29.44 0 0 0 7.28 4.64c2 0.94 3.18 -0.32 4 0.5a15.02 15.02 0 0 1 2.98 5.6c0.16 0.46 0 0.56 -0.28 0.7 -58.92 32.94 -35.2 20 -46 26 -4 2.22 -23.24 12.22 -28.9 12.1Zm156.74 35.44c0 0.88 0 0.9 -0.86 0.68 -0.2 0 -143.02 -37.54 -143.32 -37.78 0 0 0.14 -0.16 0.22 -0.2 4 -1.72 16.2 -8 16.24 -8a1.72 1.72 0 0 1 1.36 -0.18L301.12 326c0.86 0.2 1.52 0.72 1.48 1.62 -0.08 2.02 -0.22 12.54 -0.22 12.54Zm0.78 -16.52a1.3 1.3 0 0 1 -1.58 0.48c-5.02 -1.34 -123.36 -30.96 -123.52 -31.04 0.62 -0.52 41.34 -23.7 41.54 -23.82 1.42 -0.82 1.74 -1.02 2.72 -0.88s2 -0.6 2.8 -1.12a10.52 10.52 0 0 0 1.72 -1.4 1.58 1.58 0 0 1 1.64 -0.44c4 1.1 47.66 12.18 49.52 12.66a3.14 3.14 0 0 0 2.88 -0.64c2.9 -2.28 53.04 -42.38 55.88 -44.68 0.46 -0.4 0.52 -0.72 0.66 -2a24 24 0 0 0 0.2 -3.6c-0.14 -0.92 0.5 -4 2 -12.9 0.26 -1.38 0.24 -1.36 1.62 -1.16 2.12 0.3 45.12 5.82 45.56 5.9s0.64 0.16 0.26 0.62c-1.14 1.42 -81.44 100.92 -83.84 103.94Zm84.62 -90c-2 2.4 -81.84 104.98 -83.16 106.58 -0.36 0.46 -0.54 0.5 -0.52 -0.24 0.14 -3.34 0.16 -11.62 0.16 -13.2a3.18 3.18 0 0 1 0.8 -2.24c1.64 -2 82.42 -102.64 83.14 -103.34 0 0.16 0 0.32 0.1 0.46l0 10.48a2.24 2.24 0 0 1 -0.46 1.42Z" fill="#000001" stroke-width="1"></path>
      <path d="M314.2 64c0.56 0.22 45.16 16.72 46.96 17.36a1.06 1.06 0 0 0 1.52 -0.98c0 -1 12.2 -31.9 12.44 -33.22 0 -0.6 -0.22 -0.88 -0.8 -0.98 -1.8 -0.3 -45.74 -16.24 -48.46 -16.96 -0.74 -0.2 -0.92 0 -1.2 0.6 -0.16 0.36 -9.44 26 -10.26 28.3a42.69 42.69 0 0 0 -1.24 4A1.5 1.5 0 0 0 314.2 64Zm3.44 -0.68c-0.5 -0.2 -0.56 -0.38 -0.12 -0.66s16.94 -9.48 17.82 -10c0.46 0.52 0.26 0.46 4.5 8a2 2 0 0 0 2.64 1.04c0.7 -0.22 7.46 -2.6 8 -2.84s0.6 0 0.74 0.32c0.72 1.72 7.12 16.92 8 18.84a1.86 1.86 0 0 1 0 0.46c-0.58 0.08 -31.7 -11.52 -41.58 -15.12ZM361.74 78c-0.48 1.02 0.18 1.7 -8.64 -18.9 -0.36 -0.88 -0.36 -0.9 0.52 -1.22 19.2 -6.96 17.36 -6.36 18 -6.34 0 0.76 0.38 -1.12 -9.88 26.46ZM326 31.36c0.24 -0.32 -0.66 -0.36 46.54 16.3a4.28 4.28 0 0 1 0.64 0.4 6 6 0 0 1 -0.68 0.92 3.24 3.24 0 0 1 -0.92 0.44L343.1 59.6c-1.42 0.5 -1.14 1.16 -2 -0.42 -2 -3.7 -15.2 -26.72 -15.3 -27.06a1.12 1.12 0 0 1 0.2 -0.76Zm-11.06 30c2.88 -7.78 9.82 -26.88 10.1 -27.3 0.3 0.24 -0.4 -0.92 9.38 16.74l0.16 0.34c-11.28 6.66 -18 10.32 -18.84 10.76s-0.72 0.52 -0.9 0.34 -0.04 -0.58 0.04 -0.84Z" fill="#000001" stroke-width="1"></path>
      <path d="M300 149.36c1.54 0 -0.84 0.2 38.1 -3.02 1.1 0 2.12 -0.64 1.9 -2 0 0 -2.1 -25.78 -2.28 -27.44 0 -0.82 -0.38 -1.06 -1.2 -1.02 -1.12 0 -38.9 3.62 -39.48 3.72a1.4 1.4 0 0 0 -1.42 1.68c0 1.12 2.86 24.7 3.14 26.96a1.68 1.68 0 0 0 1.24 1.12Zm36.68 -4.88c-0.52 0.18 -33.26 2.88 -34.52 3.04 -0.62 0.12 -0.2 -0.34 -0.14 -0.4 1.44 -1.84 7.86 -10.12 9.64 -12.44 0.46 -0.6 0.46 -0.6 1.1 -0.18L318 138c0.9 0.6 1.16 0.58 2 -0.2 0 0 4 -4.14 4.26 -4.42s0.46 -0.32 0.8 0c1.56 1.48 11.08 10.16 11.74 10.74 0.1 0.2 0.16 0.3 -0.18 0.36Zm-0.28 -22.82s1.42 19.42 1.5 20.24c0 0.16 0.16 0.9 -0.54 0.24 -6.56 -5.66 -10 -9.04 -10.92 -10s-0.64 -0.46 0 -1.1l9.22 -9.68c0.34 -0.42 0.62 -0.42 0.68 0.3Zm-38.54 -0.44c1.28 -0.2 37.32 -3.34 37.52 -3.36 0.94 0 0.42 0.56 0.3 0.68 -1.1 1.16 -14.22 14.96 -16.46 17.38 -0.44 0.48 -0.72 0.2 -1.06 0 -1.82 -1.18 -18.24 -12 -20.5 -13.44 -0.86 -0.48 -0.54 -1.14 0.14 -1.26Zm-0.22 3.3c1.1 0.6 10.6 7.06 12.44 8.24 0.4 0.26 0.38 0.44 0.12 0.76 -1.28 1.66 -9.7 12.74 -10 12.98 0 -0.18 -0.54 -4.28 -2.66 -21.6Z" fill="#000001" stroke-width="1"></path>
      <path d="M321.22 182.86c-1.04 -0.26 -32 -6.42 -35.58 -7.08a1.4 1.4 0 0 0 -1.9 1.24c-4.82 23.58 -4.68 22.86 -4.74 23.64 0 1.84 0.98 2 1.66 2.18 2.62 0.82 11.16 2.38 34.54 6.98 1.22 0.24 1.7 0.32 2 -0.9 0.68 -3.32 4.38 -22.14 4.82 -24.3 0.12 -0.84 0.22 -1.5 -0.8 -1.76Zm-40.42 16.62c0.58 -2.8 3.48 -17.78 3.66 -18.82 0 -0.46 0.28 -0.46 0.52 -0.16s0.38 0.56 7.58 10c0.38 0.42 0.16 0.62 -0.16 0.86l-11.12 8.32c-0.12 0.04 -0.64 0.58 -0.48 -0.2Zm33.48 8.38c-0.22 0 -29.3 -5.74 -31.48 -6.16 -0.18 0 -0.78 0 -0.18 -0.56 1.48 -1.14 7.68 -5.7 9.26 -6.88 0.68 -0.5 1.42 -0.94 2.1 -1.44 0.3 -0.22 0.42 0 0.58 0.16 3.06 4.12 3.12 4.14 3.68 4.94a1.26 1.26 0 0 0 1.58 0.54 55.4 55.4 0 0 0 6.18 -3.14c0.34 -0.18 0.52 -0.26 0.8 0.18 1.7 2.84 7.62 12 7.72 12.24s-0.16 0.12 -0.24 0.12Zm1.72 -1.62c-0.22 -0.28 -6.88 -11.1 -7.4 -11.8 -0.26 -0.34 0 -0.5 0.18 -0.64s10 -5.4 10.46 -5.58l0.36 0c0 0.12 -3.48 17.78 -3.6 18.02Zm3.84 -20.84c-0.76 0.46 -17.2 9.26 -19.72 10.68 -0.46 0.26 -0.66 0 -0.84 -0.22L285.54 178a2.68 2.68 0 0 1 -0.14 -0.36l0.38 0c36 7.16 34.3 6.52 34.46 7s-0.24 0.6 -0.4 0.76Z" fill="#000001" stroke-width="1"></path>
      <path d="M240.78 155.78c0 2 0.74 3.38 4 4.26 2 0.5 42.56 9.64 47.62 10.7a5.06 5.06 0 0 0 3.66 -0.24c2.8 -1.58 1.84 -4.48 1.32 -6.76s-12.26 -35.74 -17.2 -47.3a5.88 5.88 0 0 0 -1.64 -2.2 3.78 3.78 0 0 0 -4.98 0c-3.56 2.82 -26.22 31.76 -28.96 35.32 -1.74 2.24 -3.7 4.44 -3.82 6.22Zm33.66 -40a2.28 2.28 0 0 1 3.2 0.26c2.18 2.54 16.86 43.2 18.44 49.7 0.46 1.88 -0.46 3.86 -3.9 2.94 -9.42 -2.5 -36.82 -8 -45.74 -10a6.74 6.74 0 0 1 -3.76 -1.72 1.7 1.7 0 0 1 0 -1.82c1.32 -2.42 29.42 -37.38 31.76 -39.34Z" fill="#000001" stroke-width="1"></path>
      <path d="M270.4 149.58c1.62 0.26 1.58 0.22 2.1 -1.4s5.32 -17.86 5.8 -19.54c0.32 -1.16 0 -1.46 -1.1 -1.64 -5.62 -0.78 -7.5 -1.7 -7.48 0.78 0 1.36 -1.14 11.58 -1.72 16.76a36.52 36.52 0 0 0 -0.28 4c0.12 0.5 0.62 0.74 2.68 1.04Z" fill="#000001" stroke-width="1"></path>
      <path d="M228.3 70.5a1.44 1.44 0 0 0 1.76 1.26c0.46 0 42 -6.48 43.9 -6.74 1.58 -0.22 2 -0.54 2.32 -1.84a3.5 3.5 0 0 0 0 -0.66l0 -0.84C276 60 272.12 35.2 272 34a18.16 18.16 0 0 0 -1 -5.1c-0.54 -0.74 -2 -0.62 -2.78 -0.48l-44.48 7.34a2 2 0 0 0 -1.56 2.3c0.16 1.34 5.58 29.68 6.12 32.44Zm1.54 -2c-0.26 -0.76 -4.86 -25.7 -4.9 -25.9 0 -0.84 0.46 0 14 6.82 1.48 0.74 1.5 0.7 0.68 2.18 -9.62 17.16 -9.2 16.4 -9.78 17Zm44.44 -5.86 -0.42 0.14c-2.38 0.42 -41.58 6.78 -41.7 6.8s-0.36 -0.22 -0.24 -0.46l10 -17.44c0.18 -0.36 0.36 -0.52 0.8 -0.26 1.08 0.62 6.12 3.2 7.52 4a6.24 6.24 0 0 0 0.86 0.3 1.16 1.16 0 0 0 1.54 -0.38l4 -4.68c0.32 -0.38 0.64 -1 1.02 -1.04s0.82 0.5 1.22 0.8 15.12 11.86 15.4 12.32ZM270 34.38c0 0.16 4 24.68 4 24.82s0 0.2 -0.1 0.28c-0.46 -0.28 -10.24 -7.9 -14.34 -11.06 -0.72 -0.54 -0.74 -0.56 -0.16 -1.24 1.6 -2 8.4 -10.24 10.18 -12.4a4.18 4.18 0 0 1 0.42 -0.4Zm-44.64 2.94c1.86 -0.24 42.32 -6.68 43.38 -6.84 0.66 -0.1 0.78 0 0.76 0.8 -0.34 0.96 0.28 -0.2 -17.54 21.76 -0.46 0.58 -0.48 0.62 -1.14 0.28 -1.6 -0.8 -8 -4 -9.7 -4.8 -2 -1.06 1.74 0.5 -16 -8.4a1.46 1.46 0 0 1 -0.92 -1.3c-0.2 -1.34 -0.2 -1.32 1.16 -1.5Z" fill="#000001" stroke-width="1"></path>
      <path d="M270 159.42c1.02 0.22 1.54 -0.2 1.56 -1.28l0 -4.4c0 -0.72 -0.24 -1.14 -1.12 -1.3l-2.22 -0.34c-0.86 -0.12 -1.2 0 -1.5 0.88 -0.52 1.34 -1 2.68 -1.46 4s-0.42 1.28 4.74 2.44Z" fill="#000001" stroke-width="1"></path>
      <path d="M259.18 171.12c0 -1.28 -0.18 -1.66 -1.48 -1.78 -0.4 0 -28.22 -0.28 -31.38 -0.28a1.08 1.08 0 0 0 -1.24 1.04c0 0.32 0.18 20.36 0.22 22s0.12 1.52 2.5 1.64 26 0.9 30 0.98c1.3 0 1.66 0 1.62 -1.58 -0.08 -0.1 -0.16 -17.88 -0.24 -22.02Zm-32 -0.48c0.24 0 28.18 0.46 28.9 0.44s0.7 0.12 0.5 0.34c-0.62 0.66 -10.5 11.18 -12.86 13.2 -0.48 0.42 -0.76 0.7 -1.28 0.26 -4.68 -3.84 -14.14 -12.68 -15.48 -13.72 -0.6 -0.42 -0.28 -0.5 0.16 -0.52Zm0.26 19.74c-0.22 0.22 -0.36 0.22 -0.38 -0.12 -0.28 -4.44 -0.32 -16 -0.32 -16a2.6 2.6 0 0 1 0.14 -0.66c0.76 0.56 3.18 2.76 9.06 7.88 0.46 0.38 0.48 0.48 0 0.88 -8.82 8.2 -6.14 5.64 -8.56 8.02Zm28.82 2.46c-0.24 0 -25.78 -0.76 -27.38 -0.82 -0.56 -0.12 -1.02 0.42 8.38 -8.18 0.66 -0.6 0.66 -0.58 1.32 0l3.24 2.82a1.52 1.52 0 0 0 2.16 0.18c0.9 -0.82 1.8 -1.66 2.68 -2.52s0.76 -0.74 1.46 0l8.28 8.2s0.14 0.38 -0.2 0.32Zm1.66 -1.62a121.84 121.84 0 0 1 -8.8 -8.58 0.58 0.58 0 0 1 0 -0.92c9.38 -9.74 7.5 -8 8.5 -8.82a47.38 47.38 0 0 1 0 7.34c0.22 8.62 0.38 10.66 0.24 10.98Z" fill="#000001" stroke-width="1"></path>
      <path d="M257.72 357.44c-4.68 1.56 -6 -0.8 -7.48 -1.74s-2.6 -1 -6.96 2c-1.44 0.98 -8 6 -8 2.2 0 -5.7 2.9 -16.82 -3.9 -12.54s-11.14 8 -13.7 9.06a0.905 0.905 0 0 0 0.42 1.76c2.18 -0.34 5.56 -3.08 13.72 -8.72 4.68 -3.24 0.72 5.12 1.6 11.3 0.56 3.88 5.34 2.96 10.38 -0.78 8.26 -6.16 4.72 1.04 11.82 0.22a2.7 2.7 0 0 0 2.62 -2c0.06 -0.58 -0.08 -0.9 -0.52 -0.76Z" fill="#000001" stroke-width="1"></path>
      <path d="M211.1 126.62c0.2 0 34.16 9.86 36.14 10.24a1.4 1.4 0 0 0 1.7 -0.96c0.28 -0.7 7.24 -25.22 7.36 -25.7 0.24 -0.9 0 -1.32 -0.72 -1.52 -2.86 -0.72 -37.52 -9.3 -38.36 -9.46s-1.18 0 -1.44 0.88c0 0.3 0 0.6 -0.18 0.9 -6.24 24.86 -6 23.4 -5.7 24.52a1.78 1.78 0 0 0 1.2 1.1Zm33.54 7.66c-14.66 -4 -29.12 -8 -31.78 -8.8a0.22 0.22 0 0 1 0 -0.4l13.6 -8.18c0.72 -0.48 0.44 -0.28 4.36 4.5 0.3 0.34 0.54 0.82 1.08 0.86a3.3 3.3 0 0 0 1.4 0c1.48 -0.58 2.94 -1.24 4.4 -1.9 0.82 -0.36 0.98 -0.68 1.4 0.12 1.82 3.4 7.28 13.74 7.3 14s-0.52 0.14 -1.76 -0.2Zm8.8 -20.28c-0.88 3.04 -4.36 15.34 -5.24 18.44a5.24 5.24 0 0 1 -0.38 0.92c-0.56 -0.92 2 3.48 -7.14 -13.4 -0.6 -1.12 -1.12 -0.28 11.64 -6.12 1.26 -0.72 1.18 -0.04 1.12 0.16Zm-36.22 -12.6c0 -0.14 0.18 -0.24 0.24 -0.32 0.64 0.2 26.28 6.78 36 9.02l0.78 0.22c0.28 0 0.24 0.34 0 0.48s-19.12 8.6 -21.18 9.6a0.6 0.6 0 0 1 -0.84 -0.14c-0.86 -1.16 -12.26 -15.08 -14.96 -18.14 -0.26 -0.36 -0.1 -0.54 -0.04 -0.76Zm-0.86 3.06a3.02 3.02 0 0 1 0.22 -0.44 1.6 1.6 0 0 1 0.38 0.26c10.34 12.8 3.02 3.52 8.48 10.5 0.24 0.3 0 0.5 -0.18 0.66L212 123.52c-0.7 0.48 -0.54 1.6 4.36 -19.1Z" fill="#000001" stroke-width="1"></path>
      <path d="M232 163.7c0.98 0 1.06 -0.38 1.16 -2.5 0 -4.2 0.3 -14.82 0.34 -17.44 0 -2 -0.68 -1.84 -2.28 -1.84 -3.54 0 -24 -0.54 -25.12 -0.4s-1.04 1.22 -1.04 1.82c0 5.46 -0.32 16.36 -0.32 18.4 0 1.12 0.64 1.1 1.76 1.14 19.5 0.66 22.5 1.12 25.5 0.82Zm0 -16.96c-0.24 9.46 -0.26 14.4 -0.28 14.52s-4.72 -5.9 -6.52 -8.38a0.68 0.68 0 0 1 0.2 -1.02c4.24 -3.4 6.6 -5.7 6.6 -5.12Zm-24.52 -3.54c2 0 20.6 0.44 23.58 0.34 0.68 0 0.72 0.48 0.26 0.86s-9.88 8.3 -10.94 9.2a0.78 0.78 0 0 1 -0.98 0c-1.2 -0.9 -12 -8.58 -12.16 -8.72a1.04 1.04 0 0 1 -0.48 -0.94c-0.02 -0.64 0.04 -0.72 0.72 -0.74Zm-1.06 16.96c0 -0.78 0.22 -9.44 0.26 -12.98 0 -0.44 0 -0.38 0.36 -0.18l6.56 4.72c0.24 0.16 0.72 0.44 0.42 0.76 -0.96 1.06 -5.46 6.4 -7.08 8 -0.1 0.12 -0.54 0.28 -0.52 -0.32Zm2 1.26c0.22 -0.36 3.16 -3.62 6.9 -8 0.26 -0.3 0.38 -0.32 0.7 0 0.84 0.66 1.74 1.22 2.6 1.84a1.76 1.76 0 0 0 2.5 0c2 -1.5 2 -2.16 2.92 -1.18s5.14 6.2 6.26 7.58c0 0.1 0.26 0.5 -0.44 0.48s-20.72 -0.46 -21.5 -0.72Z" fill="#000001" stroke-width="1"></path>
      <path d="M216.96 234.9c0.52 -0.48 0.38 -0.98 -0.26 -1.22s-54.26 -14.4 -55.7 -14.78c-1.04 -0.26 -1.2 0 -2.12 0.6 -16.18 9.56 -16 9.24 -16.38 9.8a0.7 0.7 0 0 0 0 0.62 0.72 0.72 0 0 0 0.62 0.24c0.4 0 12.88 -7.38 16.32 -9.62 0.4 -0.26 0.8 -0.62 1.38 -0.34 2.76 0.78 53.06 14.22 54 14.46 0.38 0 0.22 0.22 0 0.36s-11.28 9.18 -13.88 11.36a1.06 1.06 0 0 1 -1.1 0.24c-0.82 -0.24 -54.48 -13.88 -55.64 -14.16s-1.46 0.3 -1.22 0.78a1.3 1.3 0 0 0 0.9 0.6c12.6 3.14 55 14 56.66 14.36a4.76 4.76 0 0 0 0.9 -0.46c1.06 -0.72 13.44 -10.94 15.52 -12.84Z" fill="#000001" stroke-width="1"></path>
      <path d="M174.1 278.66a0.68 0.68 0 0 1 0.94 0.2 8.94 8.94 0 0 0 0.78 1.48 0.72 0.72 0 0 0 1.04 0.3c0.96 -0.52 0.68 -0.72 -0.24 -2.86 0.6 -0.28 1.24 -0.54 1.84 -0.86 0.28 -0.16 0.32 0 0.42 0.16 0.78 1.52 0.98 2.14 2 1.62 0.5 -0.24 0.4 -0.66 0.26 -1.04 -0.48 -1.54 -1.06 -1.48 0 -2 2.2 -0.94 1.08 -0.26 2.56 1.46 0.36 0.42 0.74 0.4 1.28 0s0.36 -0.62 0.2 -1c-0.68 -1.56 -1.36 -1.82 -0.46 -2.24s2.18 -1.08 3.32 -1.56c1.72 -0.72 1.32 -0.78 2.56 0.38a4.82 4.82 0 0 0 6.62 -0.5c1.06 -1.22 0.72 -2.76 0.82 -4.2a0.6 0.6 0 0 0 -0.1 -0.3 4.52 4.52 0 0 0 -6 -2.7 4 4 0 0 0 -2.42 1.76c-1.66 3.02 0.34 3.14 -1.22 3.78s-3.06 1.26 -4.58 2c-0.46 0.22 -0.62 0 -0.8 -0.28 -1.04 -1.84 -1.06 -2 -1.82 -1.7s-0.8 0.56 -0.2 1.62c0.72 1.42 0.72 1.42 -0.76 2 -0.98 0.34 -0.54 0 -1.82 -1.72a0.6 0.6 0 0 0 -0.98 0 0.86 0.86 0 0 0 -0.28 1.1c0.2 0.4 0.4 0.8 0.64 1.18s-0.2 0.62 -2 1.3c-0.22 0.1 -0.34 0.1 -0.48 -0.16s-0.58 -0.98 -0.86 -1.5a0.78 0.78 0 0 0 -1 -0.48 0.82 0.82 0 0 0 -0.48 1.16c0.52 1.42 1.1 1.68 0.3 2 -4 1.58 -6.62 2.92 -7.22 3.04 0.12 -0.44 0.3 -0.46 0.46 -0.7a6 6 0 0 0 1.06 -3.88c0 -0.68 -0.58 -1.24 -1.14 -1.2 -1 0 -2.46 0.52 -2.16 1.46a0.84 0.84 0 0 0 1 0.54c0.6 0 0.42 0.28 0.34 0.56 -0.56 2 -1.52 2.54 -2.62 4.1a1.42 1.42 0 0 0 1.08 2.34 19.88 19.88 0 0 1 6.14 1.28c0.18 0 0.28 0.3 0.4 0.46a3.68 3.68 0 0 0 -0.44 0.34c-0.26 0.24 -0.7 0.48 -0.72 0.76s0.3 0.64 0.58 0.86c0.94 0.58 2.78 -0.56 2.48 -2.26a3.2 3.2 0 0 0 -2.52 -2.28c-1.26 -0.34 -2.54 -0.5 -3.08 -0.74 0.94 -0.54 6.92 -2.94 7.28 -3.08Zm17.12 -11.06a2.7 2.7 0 0 1 3.58 -0.62c1.2 0.88 1.34 0.68 1.4 2.16 0 0.4 0 0.9 -0.12 1.4 -0.28 1.84 -3.66 2.4 -4.98 0.18a2.98 2.98 0 0 1 0.12 -3.12Z" fill="#000001" stroke-width="1"></path>
      <path d="M142.7 89.1c0.96 2.38 9.66 23.62 11.18 27.4a1.52 1.52 0 0 0 2.28 0.96c0.3 -0.12 35.02 -13.88 36.74 -14.8a1.86 1.86 0 0 1 0.58 0 1.18 1.18 0 0 0 1.14 -1.54c0 -0.5 -9.82 -28.18 -10 -28.42 -0.28 -0.78 -0.58 -0.98 -1.56 -1a5.14 5.14 0 0 0 -1.1 0.24c-1.5 0.54 -35.8 14.32 -38.6 15.46a1.22 1.22 0 0 0 -0.66 1.7Zm12.5 25.16c-0.32 -0.32 0.6 1.76 -8.98 -21.58a3.7 3.7 0 0 1 0 -0.46 1.3 1.3 0 0 1 0.48 0c16 4.5 15.08 4 15.52 4.56 -0.22 0.58 -6.98 17.38 -7.02 17.48Zm2.14 0.6s-0.22 -0.2 -0.2 -0.26c0.92 -2.3 5.4 -13.26 6.68 -16.46 0.38 -0.92 0.38 -0.94 1.32 -0.7l5.62 1.56c2 0.52 2 0 4.4 -4.52 0.36 -0.64 0.36 -0.66 1.02 -0.34l14 6.64c0.42 0.22 0.58 0.26 0.72 0.52 -0.9 0.4 -33.52 13.58 -33.56 13.56Zm27.06 -37.04a4.3 4.3 0 0 1 0.28 0.52c0.16 0.44 6.76 19.86 7.14 20.8 -0.14 0 -0.28 0.16 -0.36 0.12l-14.28 -6.82c-0.7 -0.34 -0.7 -0.42 -0.34 -1.06 7.4 -13.38 6.94 -12.96 7.56 -13.56Zm-39.12 10.94c2 -0.84 36.26 -14.42 37.18 -14.78 0.6 -0.26 0.68 -0.22 0.84 0.42l0 0.48c-0.28 0.78 -9.5 17.58 -11.48 21.46a0.8 0.8 0 0 1 -1 0.5c-0.8 -0.26 -25.6 -7 -25.6 -7a1.42 1.42 0 0 1 -0.48 -0.7s0.36 -0.3 0.54 -0.38Z" fill="#000001" stroke-width="1"></path>
      <path d="M190.2 143.64c0.58 0.54 1.58 -0.56 0.36 -1.62 -5.54 -4.82 -11.84 -18.94 -13.06 -27.72a1.2 1.2 0 0 0 -1.06 -1.1 0.8 0.8 0 0 0 -0.66 0.68c-0.3 2.42 4.88 21.02 14.42 29.76Z" fill="#000001" stroke-width="1"></path>
      <path d="M173.72 118.4c-0.22 -0.92 -1.54 -1.02 -1.56 0.3 0.84 5.16 8 24.1 15.32 28.46 0.98 0.58 2 -0.46 0.68 -1.32 -6.16 -4.42 -12.3 -18.64 -14.44 -27.44Z" fill="#000001" stroke-width="1"></path>
      <path d="M180.84 312.54c-3.64 10.12 -2.6 9.5 -10.62 24.2 -4.22 7.76 -9.1 10.94 -10.98 14.26a1.08 1.08 0 0 0 0 1.42c0.36 0.26 0.98 0 1.42 -0.48 4.48 -5.48 7.74 -7.28 12.96 -17.42a104.5 104.5 0 0 0 8.7 -21c0.78 -2.04 -0.98 -2.36 -1.48 -0.98Z" fill="#000001" stroke-width="1"></path>
      <path d="M171.28 310c0.42 -0.7 -0.66 -1.5 -1.22 -0.94s-0.5 0.7 -5.1 7.48c-6.72 9.9 -8.5 9.48 -10 13.32 0 0.1 0 0.3 0.16 0.46l0.36 -0.2c2.52 -0.84 8.86 -9.56 10.34 -11.72 1.04 -1.6 3.76 -5.62 5.46 -8.4Z" fill="#000001" stroke-width="1"></path>
      <path d="M154.32 314.12c-3.74 4.5 -29.9 24 -29.9 24 -0.22 0.52 0 0.78 0.46 0.78l0.5 -0.12c1.04 -0.18 18.92 -13.56 18.96 -13.6 0.98 -0.78 11.4 -9.22 11.28 -10.78 0.38 -0.72 -0.9 -0.76 -1.3 -0.28Z" fill="#000001" stroke-width="1"></path>
      <path d="M101.26 216.46c7.86 8.96 24.4 24.28 34.76 26.7 0.94 0.22 2.12 -1 0.34 -1.74 -11.84 -4.92 -26.1 -17.26 -33.62 -26.3 -7.12 -8.6 -6.18 -9.08 -7.28 -8.9s-1.12 0.86 -0.58 1.72a71.62 71.62 0 0 0 6.38 8.52Z" fill="#000001" stroke-width="1"></path>
      <path d="M116.66 83.46c0.56 0.14 0.78 -0.2 1.02 -0.6a2.4 2.4 0 0 1 2.48 -1.44c1.32 0.14 2.12 1.16 2.78 2.42a1 1 0 0 0 1.74 0 1.74 1.74 0 0 0 0 -1.54 5.62 5.62 0 0 0 -4.88 -3.16 10.12 10.12 0 0 0 -2 0.64 3.48 3.48 0 0 0 -1.76 2.8c-0.04 0.64 0.06 0.76 0.62 0.88Z" fill="#000001" stroke-width="1"></path>
      <path d="M116.74 120.12c-0.58 -0.52 -1.04 -0.36 -1.62 0.18a2.94 2.94 0 0 1 -1.18 0.76c-3.1 0.76 -4.54 0.16 -6.46 2 -3.88 4 -4.84 8 -4.28 10.86 0.76 3.8 2.8 6.72 8.8 7.16 2.82 -0.34 4.72 -0.26 6.42 -2.22a10.18 10.18 0 0 0 4 -5.64c0.58 -3.34 2.1 -8 0.24 -10.58s-4.46 -1.16 -5.92 -2.52Zm4.88 8.22c-0.38 1.38 -0.62 2.78 -0.9 4.18 -0.62 3.02 -2.54 3.68 -3.56 4.94 -1.36 1.7 -3.22 1.6 -5.76 1.86 -3.3 -0.66 -5.8 -1.84 -6.44 -5.18a10.38 10.38 0 0 1 3.8 -9.7c2.3 -2.16 4.14 -0.34 7.08 -2.16a0.68 0.68 0 0 1 0.52 0c1.14 0.5 6.96 -0.12 5.26 6.06Z" fill="#000001" stroke-width="1"></path>
      <path d="M119.48 95.16c-0.64 0 -0.72 0.48 -0.9 0.92 -0.4 1.04 0 2.54 1.06 2.66s1.48 -0.34 1.6 -1.44c-0.42 -1.58 -0.32 -2.1 -1.76 -2.14Z" fill="#000001" stroke-width="1"></path>
      <path d="M112 125.84a6.72 6.72 0 0 0 -0.82 8 3.4 3.4 0 0 0 5.42 0 6.64 6.64 0 0 0 0.7 -8.18 3.46 3.46 0 0 0 -5.3 0.18Zm3.62 1.32 -2.3 0.42c-0.28 0 -0.34 0 -0.24 -0.3 0.6 -1.46 2.62 -1.66 2.86 -0.3 -0.08 0.2 -0.3 0.16 -0.42 0.18Z" fill="#000001" stroke-width="1"></path>
      <path d="M93.14 218.44c2.74 7.3 11.68 20.8 22.7 29.54 1.62 1.3 2 0.14 1.12 -0.72 -15.62 -14.2 -20.4 -27.32 -22.22 -29.82 -0.74 -1.08 -1.98 0 -1.6 1Z" fill="#000001" stroke-width="1"></path>
      <path d="M96.16 88.28a2.24 2.24 0 0 0 0.86 -0.32 0.94 0.94 0 0 0 0.22 -0.62A4.26 4.26 0 0 1 98.96 84a5.52 5.52 0 0 1 7.14 -0.2c0.4 0.28 0.88 0.44 1.24 0.14s0.68 -1.2 0.28 -1.6c-3.5 -3.84 -11.86 -1.56 -12.2 4.26 0.16 0.46 0.3 0.96 0.46 1.42 0.12 0.12 0.22 0.28 0.28 0.26Z" fill="#000001" stroke-width="1"></path>
      <path d="M81.76 60.5a12.72 12.72 0 0 1 1.9 -3.56c0.38 -0.48 0.46 -0.48 0.72 0 2.94 6.32 16.1 5 20.42 -2.26a6.8 6.8 0 0 0 0.56 -6.64 0.48 0.48 0 0 1 0.12 -0.66 4.58 4.58 0 0 1 1.76 -1.08c1 -0.16 1.1 -2.92 -2.6 -0.22 -0.3 0.22 -0.34 0.34 -0.76 0 -6.2 -5.26 -19.42 -0.22 -20 7.38a3.46 3.46 0 0 1 -0.86 2.12 12.74 12.74 0 0 0 -2.26 4.54c-0.32 1.2 0.6 1.58 1 0.38Zm3.86 -8.2a11.82 11.82 0 0 1 9.58 -6.6 8.76 8.76 0 0 1 7.34 1.18c1 0.7 0.38 1.16 0 1.62s-0.42 0.58 -0.88 0a2.46 2.46 0 0 0 -3.56 -0.5 12 12 0 0 0 -3.64 4.6c-0.8 -1.72 -1.9 -3.26 -4.42 -2.52a19.08 19.08 0 0 0 -4.38 2.54s-0.08 -0.28 -0.04 -0.32Zm0 2.28A15.38 15.38 0 0 1 90 51.54a1.56 1.56 0 0 1 2.32 0.76c1.2 2 1.1 2.94 1.88 2.98a0.86 0.86 0 0 0 0.92 -0.66 11.22 11.22 0 0 1 3.04 -4.9c1.46 -1.44 2 -0.94 2.86 0.84a1.46 1.46 0 0 1 0.12 1.16 0.73 0.73 0 1 0 1.32 0.62 7.54 7.54 0 0 1 1.54 -3.02c1.42 2.78 -1.7 8.86 -10.12 10 -3.34 0.5 -7.64 -0.66 -8.52 -4a0.78 0.78 0 0 1 0.28 -0.74Z" fill="#000001" stroke-width="1"></path>
      <path d="M104.74 98.56a1.24 1.24 0 0 0 -2 0.64 7.06 7.06 0 0 0 -0.26 1.08 2.74 2.74 0 0 0 0.64 1.82 1.4 1.4 0 0 0 2.32 -0.24 3.38 3.38 0 0 0 -0.7 -3.3Z" fill="#000001" stroke-width="1"></path>
      <path d="M81.02 111.72a0.84 0.84 0 0 0 0.98 -0.92c0 -0.72 -0.38 -1.16 -1 -1.16a0.84 0.84 0 0 0 -0.96 0.78c-0.04 0.3 0.06 1.28 0.98 1.3Z" fill="#000001" stroke-width="1"></path>
      <path d="M81.02 107.06c1.1 0 1.08 -1.72 0.14 -1.68s-0.86 0.2 -0.84 0.74 0.28 0.96 0.7 0.94Z" fill="#000001" stroke-width="1"></path>
      <path d="M78 107a0.74 0.74 0 0 0 -0.84 0.78c0 0.46 0.44 1.18 0.78 1.2a0.94 0.94 0 0 0 1 -0.9A0.92 0.92 0 0 0 78 107Z" fill="#000001" stroke-width="1"></path>
      <path d="M78 97.68a0.75 0.75 0 1 0 0.24 1.48c0.54 0 0.54 -0.48 0.6 -0.82s-0.4 -0.68 -0.84 -0.66Z" fill="#000001" stroke-width="1"></path>
      <path d="M77.88 94.56a0.88 0.88 0 0 0 0.88 -0.92c0 -0.76 -0.3 -1.1 -1 -1.12s-0.72 0.12 -0.76 0.88 0.38 1.16 0.88 1.16Z" fill="#000001" stroke-width="1"></path>
      <path d="M77.78 104.16a0.82 0.82 0 0 0 0.9 -0.86 0.94 0.94 0 0 0 -0.92 -1.1c-1.24 -0.06 -1.24 2 0.02 1.96Z" fill="#000001" stroke-width="1"></path>
      <path d="M77.32 113.66a0.98 0.98 0 0 0 0.98 -0.96q0 -1.04 -0.9 -1.08a0.8 0.8 0 0 0 -0.94 0.92c0.02 0.52 0.48 1.12 0.86 1.12Z" fill="#000001" stroke-width="1"></path>
      <path d="M75.26 85.32a1.14 1.14 0 0 0 0.18 -2.24c-1.24 -0.18 -1.44 2.06 -0.18 2.24Z" fill="#000001" stroke-width="1"></path>
      <path d="M75.32 88.52a0.84 0.84 0 0 0 -0.92 0.88c0 0.5 0.7 1.38 1.12 1.36s0.78 -0.28 0.78 -1.04a1.08 1.08 0 0 0 -0.98 -1.2Z" fill="#000001" stroke-width="1"></path>
      <path d="M75.14 94.18c-0.54 0 -0.8 0.26 -0.8 0.82a1 1 0 0 0 0.8 1.02 0.82 0.82 0 0 0 0.84 -0.92 0.8 0.8 0 0 0 -0.84 -0.92Z" fill="#000001" stroke-width="1"></path>
      <path d="M74.26 103.44c-0.58 0 -0.88 0.42 -0.86 1.14a1 1 0 0 0 0.86 1.08c0.56 0 0.94 -0.42 0.94 -1.08s-0.34 -1.18 -0.94 -1.14Z" fill="#000001" stroke-width="1"></path>
      <path d="M74.3 100.66c0.6 0 0.9 -0.3 0.88 -0.86 0 -1.18 -1.8 -1.2 -1.82 -0.12 -0.02 0.72 0.34 1 0.94 0.98Z" fill="#000001" stroke-width="1"></path>
      <path d="M72.82 109.8c0 1.32 1.88 1.5 1.74 0.36 0.04 -1.56 -1.8 -1.42 -1.74 -0.36Z" fill="#000001" stroke-width="1"></path>
      <path d="M70.84 93.14a1.14 1.14 0 0 0 0 -2.28c-1.5 -0.12 -1.3 2.04 0 2.28Z" fill="#000001" stroke-width="1"></path>
      <path d="M70.68 87.18c0.62 0 0.84 -0.22 0.88 -0.96s-0.32 -0.8 -0.92 -0.84 -0.76 0.18 -0.78 0.78 0.24 1 0.82 1.02Z" fill="#000001" stroke-width="1"></path>
      <path d="M71 123.62c-2.24 0.3 -2.22 -0.88 -1.56 -1.68 1.84 -2.2 1.44 -4 0.52 -5.06a9.24 9.24 0 0 0 -5.06 -3.28c-2.28 -0.48 -4.32 1.36 -3.1 4.68 0.24 0.82 1.68 1.04 1.7 -0.22s-0.5 -2.5 0.66 -2.48c1.6 0 5.28 2.76 4.44 4.2 -0.68 1.12 -2 2 -1.5 3.72s1.42 2.62 4.14 2c1.2 -0.34 1.12 -2.08 -0.24 -1.88Z" fill="#000001" stroke-width="1"></path>
      <path d="M70.34 98.32a1.08 1.08 0 0 0 1.08 -0.96c0 -0.92 -0.36 -1.34 -1.04 -1.32 -1.2 -0.04 -1.28 2.28 -0.04 2.28Z" fill="#000001" stroke-width="1"></path>
      <path d="M70 102.8a0.88 0.88 0 0 0 0.94 -1.04c0 -0.62 -0.28 -0.88 -0.86 -0.86s-0.94 0.34 -0.92 0.94a0.96 0.96 0 0 0 0.84 0.96Z" fill="#000001" stroke-width="1"></path>
      <path d="M70.74 106.7c0 -0.68 -0.36 -1.02 -1 -0.98s-0.8 0.38 -0.8 0.98 0.32 0.9 0.98 0.88 0.84 -0.24 0.82 -0.88Z" fill="#000001" stroke-width="1"></path>
      <path d="M66.42 87.58a0.84 0.84 0 0 0 -1 0.74c0 0.54 0.48 1.4 0.9 1.4a1.02 1.02 0 0 0 1.04 -0.98c0.04 -0.74 -0.26 -1.12 -0.94 -1.16Z" fill="#000001" stroke-width="1"></path>
      <path d="M66.1 98.24c-1.3 0 -0.86 2 0 2.12a0.92 0.92 0 0 0 1 -0.8 1.14 1.14 0 0 0 -1 -1.32Z" fill="#000001" stroke-width="1"></path>
      <path d="M66 95a1.02 1.02 0 0 0 1.06 -1.08c0 -1.28 -2 -1.42 -2.1 -0.28A1.26 1.26 0 0 0 66 95Z" fill="#000001" stroke-width="1"></path>
      <path d="M65.52 103.1c-0.46 0 -0.68 0.24 -0.68 0.8s0.28 0.9 0.64 0.88 0.96 -0.28 0.88 -0.76 -0.24 -0.88 -0.84 -0.92Z" fill="#000001" stroke-width="1"></path>
      <path d="M62.66 100.36c-0.58 0 -0.56 0.34 -0.52 0.68s0.26 0.98 0.68 0.96a0.84 0.84 0 0 0 -0.16 -1.64Z" fill="#000001" stroke-width="1"></path>
      <path d="M61.66 92.24c0.82 0 1 -0.18 1.02 -0.9s-0.24 -1.12 -0.86 -1.12a1.02 1.02 0 0 0 -0.16 2Z" fill="#000001" stroke-width="1"></path>
      <path d="M61.46 95.46c-0.44 0 -0.72 0.38 -0.72 0.92s0.24 0.86 0.66 0.86a0.78 0.78 0 0 0 0.8 -0.84c0 -0.4 -0.38 -0.96 -0.74 -0.94Z" fill="#000001" stroke-width="1"></path>
    </g>
  </g>
</svg>